<?xml version="1.0" encoding="UTF-8"?><svg id="Layer_1" xmlns="http://www.w3.org/2000/svg" viewBox="0 0 1305 843"><defs><style>.cls-1{stroke-width:0px;}</style></defs><path class="cls-1" d="m551.03,665.96c-7.61,7.85-3.36-6.78-12.46-4.31-.31,4.11,1.05,12.76-2.88,14.77-5.34-5.25-6.33-1.38-8.92,4.65-.67-.15-1.34-.31-2.01-.46-.71-10.13-1.43-20.26-2.06-29.26,5.97,4.58,5.31,14.48,11.22,20.39.78-.4,1.56-.81,2.34-1.21-1.82-4.07-3.64-8.15-5.6-12.52,1,.4,1.78.72,3.19,1.29-2.27-4.73-4.29-8.95-6.44-13.44-6.66,1.02-6.94.78-11.01-4.55-.87.65-2.49,1.88-3.87,2.92,7.56,10.79,4.11,23.42,8.44,34.42-.49.17-.98.33-1.46.5-.83-.73-1.65-1.46-2.48-2.18-.55-.93-1.1-1.87-1.61-2.74,1.12-.49,1.88-.82,3.54-1.54-3.12-2.18-5.49-3.83-7.86-5.48-.44.36-.88.71-1.32,1.07,1.01,4.66,2.02,9.31,3.03,13.97.42-.04.83-.09,1.25-.13,1.01-1.74,2.01-3.49,3.02-5.23.77,1.92,1.54,3.84,2.34,5.82-11.44,4.44-10.86-11.31-12.55-19.27-1.26-5.95-3.02-11.54-1.51-17.42.96-3.73,5.69-7.28,1.09-9.27-.94,1.76-1.48,3.63-1.61,5.59-2.24-2.68-4.24-5.08-6.28-7.52,8.15-3.1,8.6-2.92,14.9,5.46,2.16-.52,4.29-1.03,6.41-1.54-.2-.21-.4-.42-.61-.63,11.19-8.57,9.93,5.93,15.95,13.48,1.26-1.74,2.52-3.48,4.47-6.17.3,1.74.59,3.48,1.01,5.96.61-2.58,1.12-4.7,1.5-6.31-2.96-1.27-10.43-2.22-6.94-6.69,3.66-4.69,6.75,1.84,9.47,3.35-.27-1.38-.55-2.75-.82-4.13.3-.24.59-.48.89-.71,6.02,8.58,9.46,15.61,12.74,25.62.5.01,1,.02,1.5.04.16-5.01.6-8.8-.93-13.63-.83-2.61-4.6-5.63-4.41-8.38.62-8.91,14.16-5.68,19.79-4.63-4.63,6.43-2.33,12.7-.13,18.98-.78.65-1.56,1.3-2.34,1.95-.65-1.65-1.3-3.31-1.66-4.2-2.21,1.4-4.36,2.76-7.42,4.7,2.6,1.53,5.17,1.34,7.72-.57-2.24,8.87,12.36,23.82,18.15,30.59,9.44,11.03,14.66.98,23.49-6.63,9.35-8.06,17.66-11.06,29.51-13.7,7.34-1.63,13.69-2.92,21.31-2.51,7.17.39,15.17,2.52,22.2.99,20.78,8.31,45.88,23.14,68.84,21.67,22.17-1.42,36.85-21.75,58.18-27.24,23.59-6.07,50.74,3.06,74.85,3.29,10.95.1,21.42-.27,31.36-5.13,10.49-5.13,19.2-9.57,30.92-11.71,25.18-4.58,49.95-2.17,75.25-3.47,10.77-.55,21.15-3.33,30.71-8.32,5.05-2.63,9.83-5.86,14.64-8.89,3.25-2.04,13.58-11.05,17.78-10.81,7.83.45,6.7,13.51,12.52,17.87,6.55,4.91,19.4,4.23,25.58-.35,3.79-2.81,6.25-7.16,10.06-10.08,3.61-2.77,7.93-4.35,11.56-7.07,7.85-5.86,13.2-14.92,15.81-24.26,3.3-11.8-.08-21.47-2.57-33.07-3.03-14.11-4.66-28.68-8.95-42.49-3.81-12.27-10.09-23.06-11.92-36-1.54-10.89-3.5-29.86,4.12-38.41-8.19,29.94,2.38,52.87,12.91,79.96-.81,20.24,5.77,40.26,12.33,59.22.67-2.61.95-3.72,1.28-5.02v16.57l1.54.86c1.21-1.17,2.43-2.33,3.99-3.84-.24-.16.53.35,2.02,1.34-2.44-12.51-1.86-24.98-6.95-36.35,2.36-10.44-4.38-24.46-7.7-34.51-2.62.67-4.6,1.18-6.58,1.69.78-3.05,1.57-6.11,2.56-9.99,1.13,1.82,1.77,2.86,2.41,3.89-3.4-23.49-22.29-49.72-11.98-73.26,9.2,6.52,12.43,18.82,18.04,28.33,5.39,9.15,13.42,15.43,21.54,22.05-.62-1.98-.92-2.98-1.21-3.91,2.13-.38,3.89-.69,5.66-1,.1-.4.21-.8.31-1.2-11.49-3.52-17.05-15.55-25.37-23.21.95-8.31-6.82-13.27-10.87-19.59-5.44-8.51-5.33-10.24-14.02-1.96-.75-5.98,6.68-8.49,11.37-6.79,5.3,1.92,8.69,10.89,11.4,15.33,8.57,14.08,15.61,30.9,32.55,35.95,16.25,4.85,32.33.54,46.69-7.54,18.06-10.16,37.15-18.63,54.77-29.59.29.48.58.96.87,1.44-15.23,9.9-30.3,19.79-44.84,30.69-5.99,4.49-13.31,12.4-20.36,14.96-7.76,2.83-17.32.69-25.57.69-14.48.01-24.9-1.97-35.36-12.83-10.71-11.12-16.96-26.6-24.11-40.11-5.51,11.53-.88,23.03,2.58,34.42,4.23,13.95,8.87,27.78,12.63,41.87,3.49,13.08,6.36,26.34,9.05,39.61,2.35,11.58,6.05,24.64,3.43,36.41-5.15,23.17-24.99,33.49-45.21,42.52-8.96,4-25.59,11.73-35.16,9.67-13.38-2.88-11.07-14.87-11.07-25.02l-1.67-.84c-8.62,9.07-14.4,16.99-27,20.4-12.1,3.27-23.69,7.98-35.81,11.19-27.21,7.21-56.12.28-83.96,3.3l.13,1.6c19.46-.95,37.97-.64,57.41.78-6.37,11.74-12.06,22.23-17.74,32.72-.62-.3-1.23-.59-1.85-.89,5.04-12.42,4.97-14.12.45-27.29-.48-.1-.97-.21-1.45-.31-2.04,7.61-4.08,15.22-6.1,22.75-3.15-.29-.09-7.97-6.22-4.55,1.16-8.3,2.55-19.47-7.54-22.3-7.78-2.18-14.81,2.71-13.59,10.69-.56-.3-1.11-.61-1.67-.91l-.78-8.54c-.44,0-.88,0-1.33,0-.48,1.59-.96,3.17-1.66,5.49-.94-1.77-1.57-2.96-1.87-3.51-16.7-2.68-34.97,11.32-51.61,13.54-20.46,2.73-38.63-6.19-58.55-5.26-19,.89-33.07,12.51-49.05,21.22-16.99,9.26-35.97,9.52-55,8.21-7.8-.54-15.24-1.7-21.86-6.16-6.94-4.66-10.66-11.57-18.56-15.1-14.39-6.44-36.78-6.33-50.35,1.78-12.77,7.63-21.58,30.79-39,27.22-18.13-3.72-17.15-29.46-29.06-39.76-9.57,16.25-7.72,36.85-23.89,50.4-7.89,6.61-20.91,7.66-30.65,10.36-11.27,3.13-22.52,6.16-34.11,7.83-23.66,3.41-47.34,2.74-70.4-3.67-10.8-3-22.43-8.79-33.62-9.56-11.26-.77-23.19,4.81-34.03,7.2-23.96,5.28-48.58,8.07-73.12,6.62-24.47-1.45-48.45-7.59-72.81-9.37-52.21-3.81-54.25,69.67-62.47,104.93-7.9-14.81-2.38-29.67,1.59-44.7,3.7-14.04,6.25-29.4,12.76-42.47,12.71-25.56,40.52-30.61,65.53-37.72-.84-1.15-1.4-1.91-2.79-3.81,14.03,4.82,26.31,10.21,40.96,10.59,18.05.48,35.54.66,53.44-2.06,18.01-2.74,34.05-1.55,51.99.77,8.85,1.15,14.57-1,23.04-2.2,7.2-1.02,14.71,2.2,22.37,2.84,34.35,2.86,67.06,10.73,101.18.99,14.26-4.07,32.48-7.27,43.04-18.53,8.21-8.76,17.15-27.79,14.13-39.22l-1.64-.09c-.29,2.89-.57,5.77-.86,8.66-3.01-5.05.36-17.35-7.78-17.54v7.6c2.43,4.04,3.83,7.32,7.83,9.88Zm612.77-65.83c-4.4,3.7-13.89,13.27-13.65,18.68,3.22-2.36,5.7-4.17,8.4-6.14.39,1.53.6,2.34.91,3.57,1.12-1.13,2.14-2.35,3.07-3.64,4.2,8.65,9.7-5.68,9.42-9.97-.07-1.11-2.46-.96-2.94-2.67-.7-2.47-.77-5.69-1.41-8.32-.45.07-.9.13-1.35.2.54,3.19-6.05,4.37-2.45,8.3Zm-116.99,40.49c.17.7.35,1.41.52,2.11,5.28-.85,36.44-9.1,28.84-18.89-3.32,3.13-6.42,6.05-10.01,9.44-.24-.09-1.59-.59-1.6-.6-6.63,2.96-12.18,5.45-17.74,7.93Zm55.77-.81c.33-.27.65-.55.98-.82-6.61-5.74-9.89-10.09-13.79-17.87-1.52,11.35-2.36,13.55,4.98,21.41.78-.29,2.54-.94,4.8-1.79-1.18-1.34-1.81-2.05-2.44-2.76.15-.2.3-.41.45-.61,1.67.82,3.35,1.63,5.02,2.44Zm163.85-168.97c-.44-.69-.87-1.39-1.31-2.08-5.76,3.28-32.99,13.75-26.09,22.23,2.36-8.61,19.36-14.71,27.4-20.15Zm-757.87,192.12c2.22-.75,4.31-1.46,5.76-1.95,2.74-7.43-5.01-8.8-7.8-13.48.64,4.87,1.29,9.75,2.04,15.43Zm-288.28,51.24c-7.79-5.69-15.54-4.28-23.23,0h23.23Zm759.75-53.72c2.05,4.11,3.69,7.38,5.32,10.65.49.02.99.03,1.48.05,1.09-3.35,2.17-6.71,3.47-10.7h-10.27Zm150.28-31.56c-1.71,5.64-4.47,9.87-11.08,10.26.37.51.73,1.02,1.1,1.52,4.73-1.91,9.45-3.82,14.07-5.68-1.34-2-2.44-3.63-4.1-6.1Zm-160.04,41.19c1.1-3.72,1.96-6.63,2.94-9.96-2.77-.16-5.13-.29-8.14-.46,1.85,3.7,3.35,6.72,5.2,10.41Zm-447.9-34.13c2.35,5.48.61,3.43-2.23,7.77,3.5,1.16,4.73.05,8.08-1.65-1.84-2.14.41-7.27-5.85-6.13Zm703.43-147.65c-.07.31-.14.63-.21.94,6.26,2.32,5.92,2.14,9.58-3.43-4.14,1.1-6.76,1.79-9.37,2.48Zm-71.13,135.27c-.15-.98-.4-2.59-.8-5.12-2.94,3.8-5.25,6.79-8.37,10.83,3.75-2.33,6.24-3.89,9.17-5.71Zm58.37-133c-.05-.28-.09-.57-.14-.85h-7.49c-.21,1.42-.39,2.6-.7,4.67,2.66-1.22,5.49-2.52,8.32-3.82Zm-102.78,152.77c3.3-1.73,5.43-2.83,7.55-3.94-2.05-.7-4.09-1.4-6.22-2.12-.44,1.99-.73,3.33-1.34,6.07Zm-794.75,81.99c.02.54.04,1.07.06,1.61,4.63-.22,6.74.39,9.44-3.36-3.44.63-6.47,1.19-9.49,1.75Zm696.55-79.56c-2.67,2.58-5.02,4.85-7.37,7.11.22.18.44.36.66.54,2.57-1.55,5.13-3.1,7.9-4.78-.34-.81-.74-1.79-1.19-2.88Z"/><path class="cls-1" d="m1070.09,371.03c-3.91-1.58-8.45-2.59-7.67-8.44-8.11,3.67-8.07-7.32-14.28-7.85,0,5.98,2.79,8.11.27,14.14-2.3,5.51-4.59,7.97-9.61,9.7-13.82,4.76-27.98-7.1-39.87-12.6-.14.18.31-.39.94-1.18-21.62-12.39-44.9-26.79-69.49-31.93-25.8-5.39-49.74-14.67-76.48-14.05-25.27.59-51.36-.75-76.38-4.66-13.35-2.09-26.63-5.41-39.68-8.89-3.92-1.04-10.12-3.94-14.33-3.26-3.76.61-7.39,5.84-10.53,5.01,1.65-2.15,3.3-4.31,5.46-7.13-17.2-6.18-37.13-11.79-55.41-12.88-7.5-.45-15.42-2.78-17.8,5-2.05,6.7,7.05,15.22,4.62,20.48l-5.85-6.54c-.41.28-.82.56-1.22.85,1.14,1.73,2.29,3.47,3.72,5.65-8.43,2.37-5.29-17.65-5.29-22.23-9.11,1.71-2.07,18.68-5.33,25.92-2.66-3.33-3.53-4.67-4.08-8.83-1.55,3.2-2.5,5.19-3.73,7.73-5.29-4.53-4.31-10.92-4.41-16.95-.41.05-.81.1-1.22.16.35,5.52.71,11.03,1.09,16.97-2.07.03-4.87,4.73-6.99-1.51-.86,1.6-1.45,2.7-2.38,4.43-1.19-1.94-2.06-3.37-3.31-5.41-.86,2.42-1.54,4.34-2.22,6.27-.39-.01-.78-.02-1.16-.03,0-6.97,3.7-15.89-1.41-20.59-2.31-2.13-12.05-2.43-15.35-3.49-4.55-1.46-8.98-3.34-13.23-5.5-8.82-4.46-16.73-10.44-25.51-14.99-9.38-4.86-19.47-7.79-28.91-12.42,0,0-.07.07-.07.07,2.93.18,5.85.36,10.13.63-5.62-3.51-7.81-2.3-2.4-8.93-7.69-4.74-15.12-10.52-23.94-13.12-2.56-.76-16.26-2.71-16.84.7-1.65-.79-3.29-1.57-4.92-2.36l.07.07c15.29-8.1,36.17,6.59,48.48,14.44,16.78,10.7,33.51,21.19,51.68,29.27,0-32.31-6.85-65.27-3.9-97.51.65-7.04,1.76-14.79,4.9-21.21,2.56-5.23,7.6-6.99,10.4-11.42,3.65-5.76-3.93-27.85,7.97-23.92-.55,6.6-1.09,12.99-1.63,19.39-.44.02-.88.05-1.32.07-.41-.79-.81-1.58-1.7-3.3.32,2.35.51,3.69.78,5.65,3.94-.61,7.59-1.17,10.38-1.61-2.37-7.98-5.06-15.04-1.38-22.79,5.58,5.85,5.2,14.16,6.39,22,.58-.03,1.17-.05,1.75-.08.25-3.89-.44-24.91,5.82-19.54,3.62,3.1,3.39,18.46,1.44,22.01,2.49.6,4.47,1.08,7.2,1.73,0-6.75-2.47-14.58.26-20.69,6.11,3.81,6.57,15.99,3.97,22.46,1.79.8,3.71,1.67,6.11,2.75,1.38-3.94,1.61-22.47,4.38-23.48,5.6-2.06,2.97,15.7,2.84,17.87.45.11.91.23,1.36.34,1.24-3.48,3.7-16.67,8.07-10.01,4.02,6.12-8.32,16.76-2.7,21.93,2.18-6.26,3.7-19.3,9.9-22.09,3.06,8.96-3.53,17.06-4.53,26.17,6.06,0,5.68-20.78,12.89-18.22-.24-.08-4.52,21.06-3.82,24.54,5.15-6.75,4.38-16.73,12.42-20.54,3.85,10.5-9.69,17.49-3.68,28.97,7.28-3.96,6.69-12.5,9.99-18.64.43.26.87.52,1.3.78-1.16,1.22-1.71,2.7-1.67,4.43,1.91-1.24,3.15-2.04,4.47-2.9,2.1,6.44,1.53,7.57-3.03,8.71-1.68,4.54-3.12,8.43-5.19,13.99.48.39,2.04,1.68,2.98,2.46,4.82-4.32,7.71-7.61,11.04-12.82,2.1-3.28,1.54-8.61,7.32-4.43-1.56.43-2.99.82-5.63,1.53,2.34,1.37,3.48,2.04,4.65,2.73-2.53,3.77-17.67,20.51-6.33,21.65,9.12.92,7.72-11.59,10.26-15.99,2.46-.43-.17,5.89,3.91,1.13-1.33,4.27-2.46,7.91-3.71,11.91,2.07.57,3.53.97,5.3,1.45.15-1.68-.29-6.46,1.31-7.67,3.93-2.97,7.25,2.07,7.7,5.11,1.06,7.19-11.59,14.08-16.14,17.9,7.38,15.1,15,30.03,21.26,45.64,2,4.98,3.5,14.47,7.3,18.22,5.76,5.69,8.05-.99,11.39-7.27,15.14-28.49,18.1-62.82,26.29-93.6.54.07,1.09.13,1.63.2-.91,5.46-1.81,10.93-2.76,16.68,4.07-4.32,4.82-10.45,3.59-15.99-.64-2.9-2.74-5.27-3.27-8.17-.6-3.28.76-6.62.39-9.95-.75-6.91-8.77-28.91-17.72-26.94-.41-2.12-.74-3.88-1.08-5.63.32.3.64.59.97.89,4.97-4.33,9.24-8.79,15.35-11.28.04,6.99-3.71,9.07-8.64,13.76,4.65,8.89,9.12,17.43,13.58,25.95,9.76-2.9,15.72-3.77,8.1,4.67-5.47,6.06-8.86,13.15-3.48,21.09,2.65-5.26,5.3-10.52,7.95-15.78.4.17.81.35,1.21.52-5.06,11.35-12,21.82-16.47,33.42-4.04,10.48-6.2,21.64-9.54,32.36-3.29,10.56-5.88,21.56-10.12,31.8-2.09,5.04-7.75,11.14-8.95,16.1-.82,3.39,1.08,6.64.12,9.96-.96-2.15-1.92-4.3-2.87-6.44-.41.14-.81.27-1.22.41l3.3,11.27c.7-.03,1.39-.06,2.09-.08.55-4.08,1.11-8.16,1.72-12.73.82,1.09,1.51,2,1.93,2.55,2.4-.73,4.66-1.42,7.27-2.21,1.81,6.23,3.49,12.01,5.47,18.86,47.06,2.94,92.79-4.63,139.49,5.78,20.76,4.63,41.77,11.29,60.61,21.27,6.66,3.53,47.12,35.67,50.53,30.65-1.7-6.86-2.93-10.17-7.7-15.33-3.93-4.24-5.37-4.97-5.51-10.71,4.71,1.84,6.82,4.55,10.2,8.39,1.62-1.44,3.1-2.75,4.47-3.97,2.79,2.61,5.16,4.83,7.5,7.02.29,1.87.63,4,1.06,6.72,1.98-.91,3.21-1.48,4.72-2.17-1.52-.56-2.66-.98-4.53-1.66,1.62-.88,2.64-1.43,3.65-1.98.31-6.46-6.18-16.75-8.68-22.64-3.95-9.32-8.25-18.49-13.62-27.09-9.35-14.98-19.98-29.73-23.46-47.23.57-.09,1.15-.18,1.72-.27,1.39,5.03,2.78,10.05,4.17,15.08.28-.09.57-.17.85-.26-.43-1.34-.86-2.68-1.29-4.02.2-.15.39-.31.59-.46,1.05,1.37,2.11,2.74,3.22,4.19.99-1.58.41-5.25.41-6.95,1.62,3.54,3.35,6.92,5.25,10.31,1.12-1.71,1.88-2.87,2.8-4.28-1.34-.28-2.39-.5-3.32-.7,1.55-10.83-4.42-19.94-5.26-30.2,15.35,37.04,34.36,71.98,58.9,103.75,5.05,3.7,10.88-.57,16.48-2.54-.17-.6-.34-1.19-.51-1.79-5.34,1.47-10.68,2.94-16.03,4.41-1.09-10.49-1.46-19.24-.29-29.74,3.67,3.2,4.72,5.54,9.15,5.74,3.91.17,5.06-4.58,8.79.02,3.56,4.39-1.84,11.91-.54,16.3,1.37,4.61,4.48,1.87,6.83,4.85-7.07,1.99-13.85,4.23-20.72,6.79,10.43,13.77,22.1,31.76,41.62,32.81,17.09.92,24.83-30.57,30.92-42.92,6.76-13.73,22.11-23.97,36.89-28.25,8.73-2.53,15.68-1.39,24.51-.95,3.83.19,6.81.86,10.47-.74,3.7-1.62,4.61-5.36,9.04-5.64-1.22,1.5-2.43,3-3.65,4.5.23.51.46,1.03.69,1.54,24.72-6.28,49.45-12.56,74.17-18.84-.02-.28-.05-.56-.07-.85-6.76-1.48-10.49.92-17.19-3.64-5.02-3.42-7.79-6.49-14.07-7.39-12.62-1.82-17.85,5.11-26.73,11.72,4.62-11.48,21.26-17.1,32.39-12.55,5.53,2.26,9.1,7.76,14.77,9.66,6.4,2.14,15.83,1.02,22.67,1.78-7.88,2.44-14.91,4.62-22.46,6.95.85,8-12.45.1-13.68,8.01,4.43-.51,8.8-1.02,13.17-1.53.07.4.14.81.22,1.21-.82.29-1.63.58-4.11,1.47,3.72,1.32,6.18,2.19,9.69,3.43-3.9,1.86-11.75,3.04-12.27,8.22-2.1-1.35-4.2-2.71-7.21-4.64.86,2.37,1.29,3.55,1.73,4.77-1.03.33-1.81.58-2.58.83.1.37.21.75.31,1.12,2.57-.71,5.14-1.42,7.7-2.13,10.72-5.05,26.98-4.5,38.69-6.25.09.5.18,1.01.27,1.51-19.66,3.79-39.46,8.6-59.39,10.68-18.34,1.91-36.69.91-54.84,4.87-18.61,4.06-30.64,11.72-41.97,26.89-10.09,13.51-19.11,26.66-34.44,34.69-.71-3.31-1.27-5.92-1.89-8.81-1.11.57-3.1,1.58-5.71,2.91,1.73.62,2.8,1,4.84,1.74-2.72,1.16-4.48,1.91-5.21,2.22-4.37-1.74-7.93-3.16-11.68-4.65.11,6.31,1.76,7.47,12.83,9.49-7.31,3.26-25.44-4.66-31.56-11.34,2.17.87,4.35,1.73,6.52,2.6l1.08-1.35c-3.53-3.11-6.73-8.4-10.89-5.23,1.3,1.55,2.34,2.8,3.38,4.04Zm105.07-57.03c.17.36.33.73.5,1.09.43-.37.86-.74,1.29-1.11,3.75-1.08,8.49.62,11-3.94,1.9,7.76,12.25,3.06,17.09,1.98-.02-.24-.05-.48-.07-.71-1.69-.22-3.37-.44-4.86-.63.62-1.75,1.19-3.35,1.76-4.95.29.33.58.65.87.98,1.79-1.75,3.89-2.68,6.3-2.79,1.76-.49,2.78.35,3.05,2.52,4.17.61,8.88-.28,13.06-.5l-6.46,2.77c-.05.44-.11.87-.16,1.31,1.99.51,3.98,1.02,5.97,1.53l.57-5.58c2.39-6.38,3.7-7.02,9.96-4.93-5.9,2.53-4.55,3.22-2.5,9.28,3.6-2.14,6.34-3.78,10.09-6.02-3.32-1.44-5.51-2.38-7.7-3.33.86-.63,1.71-1.27,3.46-2.56h-3.92l.22-1.41c2.78.53,5.56,1.05,9.82,1.86-2.92-1.65-4.75-2.68-6.94-3.92,2.11-.76,3.94-1.43,5.78-2.09-.15-.43-.3-.86-.44-1.29-8.36,2.6-15.66,6.13-24.21,7-8.36.85-21.2.56-27.72,6.17,2.36-.42,3.78-.67,5.19-.92.16.52.32,1.05.49,1.57-2.9,1.39-5.79,2.79-8.69,4.18l-6.03-3.07c.63-.84,1.25-1.69,1.88-2.53,1.64-.28,3.28-.56,4.92-.84-.04-.43-.09-.85-.13-1.28h-18.04c.52,1.74.98,3.28,1.47,4.91-1.25.29-2.19.51-3.35.78,3.95,4.26,7.78,2.6,12.07,1.09-1.04,2.59-2.89,4.37-5.56,5.35Zm-21.92,1.6c-7.48-1.12-7.05,6.34-9.82,9.45-.88-3.1-1.75-6.14-2.92-10.25-4.34,3.88-8.34,7.45-13.37,11.94,4.02,1.24,5.12,1.1,7.88,4.27-2.72.54-5.89,4.3-7.48-1.76-3.98,9.67-7.68,18.67-11.67,28.35,1.61-1.29,2.71-2.18,3.82-3.07.31.24.61.48.92.72-1.6,3.4-3.2,6.79-4.8,10.19.41.3.81.6,1.22.9,5.65-3.97,11.3-7.95,16.95-11.92,0,0,10.09-17.13,10.67-18.1-3.71,1.15-6.64,2.05-10.49,3.23.78-2.36,1.11-3.39,1.57-4.79-1.15.09-1.94.16-2.72.22l.04.05c.64-1.36,1.27-2.73,1.91-4.09,4.67,2.54,7.75-.27,11.07-4.24-.44,2.39-.68,3.73-1.08,5.91,2.08-.61,3.44-1.01,5.2-1.52-1.59-2.19-2.67-3.68-3.81-5.25,2.26-.6,3.98-1.05,6.02-1.59-.27,1.67-.46,2.81-.59,3.64,5.7-3.12,11.25-6.17,16.73-9.17-3.4.37-6.65.72-9.9,1.07,5.63-1.13,1.65-5.43,2.46-7.44,2.98-2.82,5.53-5.23,8.36-7.91-5.65-4.26-9.69,1.05-15.56.77,5.01,4.77,1.09,7.36-.6,10.39Zm-565.38-52.13c-.18.02-.35.03-.53.05,0,13.58-2.09,20,12.21,23.01,11.49,2.42,21.28-.21,32.05-3.98,23.79-8.34,42.19-7.48,65.92.71,7.32,2.53,22.17,11.67,29.94,9.08,10.03-3.35,6.27-17.64,4.15-24.12-6.69-20.54-17.3-40.8-29.8-58.38-11.42-16.06-26.89-31.5-43.49-42.2-13.59-8.76-34.92-19.57-51.68-16.18-20.21,4.09-22.97,23.35-23.6,40.81-.85,23.6,2.88,47.7,4.83,71.2Zm426.17,99.18c0,.57,0,1.15,0,1.72,3.16.95,14.72,6.52,17.73,3.71,3.01-2.81-1.13-13.42-1.89-17.03-5.83,4.27-10.83,7.93-15.83,11.59Zm-281.02-70.88c6.46-.83,5.41-1.43,4.65-7.85-.36.04-.71.08-1.07.13-1.07,2.31-2.14,4.62-3.58,7.72Zm11.3,6.63c-3.53-6.17-8.07-3.03-11.66-4.22-.1.45-.2.9-.3,1.36,3.66.88,7.32,1.75,11.96,2.87Zm-128.84,12.9l2.19-.06-.89-11.38c-.43.03-.86.07-1.3.1v11.35Zm-75.09-44.78c.41.23.83.46,1.24.69.72-1.21,1.44-2.43,2.16-3.64-4.77-1.85-5.14-2.96-7.9,1.34,2.51-.98,3.71-1.44,5.68-2.21-.6,1.93-.89,2.88-1.18,3.82Z"/><path class="cls-1" d="m238.97,213.97c23.21,12.75,46.56,25.05,70.28,36.83,18.69,9.29,43.86,24.05,64.72,12.29,10.71-6.04,14.74-12.48,28.39-9.52,8.71,1.89,17.25,8.12,26.26,3.86,8.32-3.93,9.68-12.65,19.23-15.8,10.13-3.34,27.26-6.33,37.21-2.6,0,0-.07-.07-.07-.07-3.11,3.41-6.46,5.4-10.79,1.6.86-.36,1.81-.76,3.92-1.66-10.19,1.07-19.12,2.01-28.04,2.94l.26,1.74c1.49-.47,2.98-.94,4.46-1.41.41.83.8,1.65.93,1.9,2.46-.62,4.51-1.14,6.02-1.52,1.99,2.42,3.63,4.43,5.27,6.43-3.33.33-16.92.61-19.04-1.98-.83,1.85-1.35,3-1.86,4.13,3.07-.19,5.93-.36,8.78-.53.06.61.13,1.21.19,1.82-3.7.54-7.4,1.07-11.1,1.61-.56-1.22-1.11-2.45-1.67-3.67-5.83,3.95-7.1,6.66-9.93,13.11l-1.44-.41c.81,1.31,1.62,2.62,2.87,4.65,5.8-6.18,3.27-6.87,11.49-8.88-.58-1.35-1-2.31-1.42-3.28,8.09,1,17.45-.45,23.06-6.61,1.32-2.21,2.65-4.43,3.75-6.28,2.94,1.07,4.8,1.75,6.19,2.25,0,8.71,5.45,4.47,12.32,5.56,6.81,1.08,13.05,4.2,19.66,5.43-.76-1.26-1.13-1.88-1.4-2.32,1.66-.66,3.34-1.33,4.52-1.8,3.12,7.03,4.26,6.55,12.04,7.07-.28.84-.68,2.02-1.08,3.19,0,0,.07-.07.07-.07-18.52-2.82-34.81-10.09-54.21-8.59-7.87.61-15.65,2.61-22.48,6.67-7.19,4.27-11.29,10.73-20.01,11.82-9.21,1.15-19.09-.56-28.37-.66-10.65-.11-15.65,3.35-24.97,7.37-16.84,7.27-38.02-1.31-53.47-8.57-18.78-8.83-36.69-19.07-55.74-27.52-17.9-7.95-35.04-16.96-52.25-26.25-17.15-9.26-35.57-16.49-52.13-26.78-17.18-10.67-32.09-24.31-46.92-37.96.95,1.54,1.84,2.99,2.73,4.44-.28.29-.57.58-.85.87-17.87-16.76-30.68-38.85-45.47-58.37-14.86-19.61-29.53-39.32-44.04-59.2.72-3.7,1.28-6.57,1.98-10.15,15.59,18.71,30.23,37.67,47.56,54.9,17.31,17.2,34.96,33.48,47.3,54.84,5.32,9.2,7.9,17.04,16.63,23.49,10,7.38,20.34,14.47,30.85,21.1,20.89,13.19,47.15,20.72,69.89,30.62l-.1-.07Zm181.08,48.66c-.73-.52-1.47-1.05-2.38-1.7-2.55,7.08-3.02,8.01,4.19,8.32h8.95c0-.33,0-.66,0-.98-1.01-.28-2.01-.57-3.76-1.06,4.19-3.38.47-3.78-1.73-4.68,1.51-.61,2.48-1.01,3.44-1.4-.14-.35-.28-.7-.42-1.05-2.77.85-5.54,1.7-8.31,2.55Zm-20.28-.53c1.02.7,2.16,1.49,3.14,2.17.42-2.48.79-4.62,1.14-6.72,1.69.46,3.15.87,4.61,1.27.11-.48.23-.95.34-1.43-4.78-1.13-9.56-2.25-14.35-3.38-.04.21-.07.41-.11.62,2.38.84,4.77,1.68,7.15,2.52-.55,1.4-1.09,2.79-1.94,4.96Zm10.61.16c-.74.25-1.49.51-2.23.76.51,2.11,1.02,4.23,1.53,6.34,1.07-.43,2.14-.86,3.21-1.29-.84-1.94-1.67-3.88-2.51-5.81Zm-11.39,7.02c-3.94-2.39-10.33,1.95-9.62-6.19-6.98,6.44,6.95,5.72,9.62,6.19Z"/><path class="cls-1" d="m446.44,666.11c-.39-1.75-.79-3.5-1.18-5.24-.28.04-.57.07-.85.11v6.76c-1.59-2.08-2.2-2.76-4.36-4.54-3.93,5.66-.91,15.24-.91,21.91-.55.05-1.11.09-1.66.14-.45-3.2-.91-6.4-1.36-9.57-1.03,2.29-2,4.43-2.96,6.56-.99-1.11-1.98-2.22-3.65-4.08.83,4.25,1.57,7.99,2.41,12.25-2.83-.81-4.49-1.29-6.9-1.97,2.86-12.9,3.44-19.4,0-31.95-1.78-6.47-6.46-14.41,3.42-12.79-1.52-3.94-2.78-7.21-4.22-10.93.39-.24,1.43-.87,2.64-1.61-5.76-3.39.57-8.17,3.84.54h6.75c.57-1.2,1.32-2.79,2.06-4.34,13.29.59.68,15.76,12.43,18.82-.2-4.47-3.29-9.54,2.62-13.15-.69,2.33-1.26,4.27-1.87,6.33,1.35-1.04,2.3-1.78,3.26-2.52,1.38,4.85.19,8.92-.57,13.82,1.97-3.46,5.57-7.65,5.63-11.8.05-3.07-3.65-2.9-2.63-6.7,1.3-4.84,4.92-3.74,7.67-1.11,4.31,4.13,1.9,4.6-1.38,8.31,1.01,5.78,2,11.55,2.98,17.33.51.05,1.02.1,1.52.15.25-5.4-1.21-10.71,1.32-15.45,1.4-2.63,6.86-7.18,9.13-9.72-.98,7.41.04,13.79,3.9,2.91,4.62,1.88,2.16,16.81,2.34,21.88.4,10.91.99,18.67,7.06,28.4-.5.33-1.01.65-1.51.98-2.37-3.54-4.74-7.08-7.11-10.61-.49.19-.98.38-1.47.56,1.35,3.8,2.71,7.6,4.27,11.98-2.4,2.08-4.9,6.75-10.4,3.08-6.75,2.16-5.79-.71-6.89-5.37-1.63-6.96-2.06-14.95-3.42-22.12-5.63,9.17,1.68,17.09.81,25.11-.43.12-.86.24-1.29.36-1.26-3.33-2.51-6.66-3.77-9.99-.36.1-.72.2-1.09.31,1.07,4.09,2.13,8.17,3.21,12.31q-3.26-.59-5.55-8.6c.98,7.72-3.37,12.44-8.61,5.37-4.95-6.68-.59-18.75-1.58-26.34-.3,1.41-.6,2.82-.9,4.23-.39,0-.78,0-1.17-.01Zm31.07,22.89c2.78-1.73,4.08-2.54,5.53-3.43-2.9-7.92-3.47-15.78-3.1-25.12,1.42,2.12,1.93,2.89,2.45,3.66.4-.11.8-.21,1.2-.32-.24-3.52-.48-7.04-.71-10.55-.29.03-.59.06-.88.09-.38.74-.75,1.47-1.13,2.21-.39-.07-.77-.15-1.16-.22.1-1.96.2-3.93.3-5.96,1.11.38,1.85.64,3.35,1.15-.84-2.61-1.42-4.41-2.01-6.25-11.17,4.77-4.25,35.44-3.83,44.75Zm-34.73-43.35c2.09-5.51.94-7.5-6.08-10.5-2.72,6.04-2.52,6.4,6.08,10.5Zm17.69,17.73c4.07-3.86,3.41-16.2,0-18.52v18.52Zm-32.19-4.19c.04-4.22,2.99-8.68-.24-13.25-6.16,4.96,1.18,8.94.24,13.25Zm23.75,22.12c.43,3.24-.7,7.71,3.22,7.32-.65-3.27-.08-5.93-3.22-7.32Z"/><path class="cls-1" d="m691.3,653.82c6.95-.43,14.76,1.52,16.8-5.23.84-2.78-1.61-9.72-1.53-12.92.07-2.77.82-5.69.68-8.41-.2-3.75-5.04-10,2.21-10.86,8.38-.99,2.86,11.04,4.09,15.91.77,3.06,2.82,5.71,3.66,8.76.64,2.32.06,7.18,1.42,8.9,4.51,5.74,9.87-.69,10.19-5.79.26-4.19-11.25-35.58,2.07-30.96,4.3,1.49,3.38,11.83,4.48,15.1,1.32,3.92,3.68,5.05,4.92,9.62.81,2.99.15,7.76,1.8,10.23,2.15,3.21,9.46,5.94,13.74,3.63,6.85-3.71,1.47-12.43-.3-18.08-2.07-6.6-5.69-13.59-5.74-20.61-.04-5.72,1.98-8.98,6.86-3.12,2.07,2.49.54,5.59,1.75,8.38,1.56,3.61,4.61,5.85,6.53,9.21,4.3,7.52,2.15,15.73,2.48,24,11.62-2.55,15.22-3.79,12.34-15.35-1.32-5.31-.89-10.25-1.77-15.2-.57-3.22-3.43-5.27-3.63-8.66.77.49,1.53.97,2.67,1.7-.09-1.86-.17-3.41-.26-5.41,12.51,2.11,5.26,31.67,18.65,35.47-16.66,7.49-29.87,13.67-48.29,14.49-18.91.84-36.73-4.22-55.89-3.25.03-.52.06-1.03.1-1.55Zm66.63.92c-11.17-.03-22.21-4.88-33.63-.34,4.75,3.34,21.8,3.8,33.63.34Zm2.24-27.84c-2.11,6.78-2.26,10.76,5.26,6.41-1.59-1.94-3.19-3.88-5.26-6.41Zm-27.58,23c2.17.3,3.87.53,6.83.93-1.93-3.86-3.31-6.62-4.69-9.38-.43.18-.85.36-1.28.54-.26,2.41-.53,4.82-.87,7.91Zm-7.42-30.59c.6.63,1.2,1.25,1.8,1.88,1.47-1.64,2.93-3.28,4.4-4.93-2.87-2.05-3.94.83-6.2,3.05Z"/><path class="cls-1" d="m378.66,670.21c-3.09,3.8-6.26,11.82.97,14.04-5.84,2.84-5.57-2.52-5.91-6.92-.52-6.76-1.57-12.17-2.54-18.72-.93-6.25,1.91-12.2,1.59-18.29-.3-5.72-2.8-8.08.57-13.16,5.29,5.34,6.07,16.9,7.04,24.41,1.12,8.7,1.28,17.46,2.62,26.26.54-.09,1.09-.18,1.63-.27-1.75-9.04-2.81-22.4,2.27-30.58-3.56-5.55-3.42-5.9.36-11.37-.15-3.14-.26-5.64-.38-8.14.59-.22,1.18-.45,1.78-.67,0,4.16.74,7.23,5.47,4.47v-6.84c-1.48.21-3.11.45-4.74.68l-.25-1.19c6.87-.96,13.07,3.48,8.11,10.04-1.25,1.66-6.01,1.85-6.5,3.83-.6,2.41,4.31,7.38,5.65,8.65-.88-2.47-1.77-4.95-2.72-7.61,7.37,6.33,18.98,21.54,8.65,30.04,0,7.89-.34,10.62,4.87,16.53-9.02,1.43-5.63-10.61-7.51-15.52-.37,6.86.06,12.04-3.75,17.72-3.07-3.79-4.77-7.5-6.71-12-.26,3.6-.51,7.03-.76,10.54-3.8-1.15-5.61-4.05-9.78-15.91Zm-1.22-8.87c.36-.25.71-.49,1.07-.74-1.85-3.82-6.74-6.04-2.09-9.79-.23-2.51-.42-4.56-.61-6.62-6.31,4.47-1.95,13.14,1.63,17.16Z"/><path class="cls-1" d="m841.02,349.09c3.05-3.13,1.9-7.18,4.01-10.96,3.03,3.29,3.96,5.99,5.64,10.08.52.06,1.05.12,1.57.17.41-2.4.34-10.59,4.35-10.19,4.18.41.03,8.11,2.72,10.87,4.68,4.81,3.84-1.43,4.55-3.47,2.4-6.93-1.55-5.84,7.32-6.77,2.52,2.64-2.39,8.16,3.03,9.22,1.08-2.31,2.08-4.45,3.08-6.59,1.91,1.26,3.83,2.51,5.74,3.77-.25.41-.5.83-.74,1.24,2.56.17,5.11.34,7.67.51.05.34.09.69.14,1.03-2.73.57-5.46,1.13-8.46,1.76.46,3.85.9,7.58,1.35,11.36,1.57-.54,3.06-1.05,4.54-1.56.16.31.32.63.48.94-2.45,2.09-4.89,4.18-7.82,6.68,2.33.81,4.22,1.48,7,2.45-3.3.48-7.65-2.09-10.57.25-3.56,2.85-2.37,11.11-2.7,15.02-.76-.2-2.08-.54-2.62-.68-4.15-9.38-1.82-19.93-6.3-28.69-1.76,8.25-2.06,16.12-3.31,24.23-6.58-3.6-7.8-13.55-10.01-20.44-1.89.75-3.36,1.33-4.99,1.97-1.94-4.28,1.88-11.04-5.72-12.29l.06.08Z"/><path class="cls-1" d="m1056.01,63.42c3.41-1.98,7.61-4.41,12.75-7.4v16.94c2.49-1.67,11.77-10.48,15.04-8.83,4.56,2.29.68,6.71-1.46,9.69.4.34.79.68,1.19,1.02,1.48-1.45,9.71-12.12,11.85-12.03,7.09.32.33,6.3.97,9.04l9.34-9.59c.45.46.9.93,1.35,1.39-1.64,2.13-3.28,4.26-4.96,6.45,2.29,1.06,2.66.89,11.97-3.99-3.61,4.03-7.21,8.06-11.89,13.28,51.13-1.77,100.67-2.52,150.2-1.58,0,.8.02,1.6.03,2.4-30.69,0-61.38-.19-92.06.07-15.14.13-30.28.49-45.41.79-5.2.1-9.97-.3-14.67,2.07-5.73,2.89-3.93,7.26-8.74-.88h-11.94c8.52-3.8,18.6,1.81,24.39-8.76-3.72,0-6.97.12-10.71.52.24-2.55.87-4.98,1.9-7.3-6.8,3.35-6.74,8.58-16.03,8.75-6.34.12-15.07.52-13.31-7.19-2.88,2.18-5.32,4.02-7.75,5.86-.29-.26-.57-.51-.86-.77,3.17-4.25,6.34-8.5,9.51-12.75-.28-.38-.56-.77-.84-1.15-8.81,5.65-15.29,11.03-22.43,18.72-.38-.26-.75-.52-1.13-.77,3.6-5.4,7.2-10.8,10.8-16.2-.54-.54-1.09-1.08-1.63-1.63-3.9,2.9-7.79,5.81-11.32,8.44.5-3.28,4.66-7.61,7.78-8.52,5.48-1.6,5.47-.86,8.07,3.92Zm28.41,3.5l-1.67-1.84c-2.29,2.1-4.58,4.21-6.87,6.31.5.55,1.01,1.11,1.51,1.66,2.34-2.04,4.68-4.09,7.02-6.13Z"/><path class="cls-1" d="m596.07,787.4c-1.66,1.49-3.32,2.98-5.52,4.96-.29-1.99-.48-3.29-.48-3.32-10.07.76-18.25,4.04-24.95-4.18-1.55,1.18-4.35,3.32-7.14,5.46l-1.04-.99c2.68-3.19,5.35-6.37,8.64-10.29-9.37,4.79-17.82,9.09-26.95,13.76-2.09-12.6-25.03.65-25.81-9.05-4.78,3.23-6.32,5.14-11.83,3.81,2.34-7.9,10.83-5.96,15.07-13.72-3.42,1.1-5.67,1.83-7.92,2.56-.2-.3-.41-.61-.61-.91,3.53-2.78,7.07-5.56,10.91-8.58-7.36-3.87-26.41,4.65-33.03,14.1,6.56,6.7,17.64-8.53,22.07-12.68-3.33,10.74-13.49,17.33-23.39,13.97,5.68-13.1,21.23-19.23,34.9-18.31-.69,5.75-1.82,11.29-3.04,16.96.88-.49,2.04-1.12,4.43-2.44-1.43,2.86-2.25,4.51-3.67,7.35,4.27-1.93,7.49-3.38,11.05-4.99v6.04c4.84-1.58,18.27-9.23,22.71-4.89-7.17.19-8.6,1.11-8.89,7.46,11.4-6.51,22.15-12.65,32.9-18.8.25.2.5.4.75.6-2.18,2.69-4.37,5.37-6.83,8.4,3.52,1.75,4.65,4.25,1.16,7.86.46.19.92.38,1.39.56,5.02-1.92,8.27-5.2,13.45-7.02.39,1.85.79,3.7,1.23,5.82,6.45-2.62,13.44-5.64,16.99,1.8,2.01-.88,4.34-1.91,7.35-3.23,0,10.47-5.53,6.89-13.54,3.57l-.35-1.64Z"/><path class="cls-1" d="m947.17,60.4c2.52-1.43,4.76-2.7,7.07-4.01,2.35,6.32-4.25,9.12-7.92,12.85,7.06,2.13,9.76-1.36,14.36-6.71.43.29.86.57,1.28.86-1.31,2.24-2.62,4.49-3.94,6.73.31.37.61.73.92,1.1,4.33-3.42,7.67-8.16,13.41-8.78,5.8-.63,8.3.86,5.51,6.52.35.37.7.73,1.05,1.1,1.86-1.75,9.88-11.81,13.06-10.04,3.03,1.69-4.1,13.91-5.12,16.33,2.63-.16,4.47-.27,7.37-.45-3.26,2.6-5.43,2.96-8.06,6.12-2.77,3.33-3.12,13.71-11.89,8.51-6.48-3.83-.62-7.65,3.85-10.5,5.65-3.6,7.53-3.54,8.43-10.82-4.11-.7-9.04,7.24-12.52-1.25-1.6,1.41-3.14,2.78-4.68,4.14-.36-.22-.71-.43-1.07-.65,1.11-2.12,2.22-4.23,3.33-6.35-.25-.31-.5-.62-.75-.93-9.28,7.49-20.26,14.3-28.26,2.19-1.53,1.88-3.46,4.24-5.38,6.61-.35-.24-.7-.49-1.05-.73.79-1.69,1.57-3.38,2.7-5.79-3.69,1.59-6.82,4.96-10.74,5.71-4.06.78-6.79-2.31-10.35-2.55-5.6-.37-16.24,8.69-18.25-.33,10.7,1.51,8.9-8.87,13.29-13.85-2.19.5-4.39,1-7.57,1.72,4-10.95,14.38-10.6,21.81-14.96-9.5,6.79-13.71,16.91-18.4,26.72.27.43.55.86.82,1.3,4.67-2.56,16.02-12.35,20.75-6.86-.98,2.11-2,4.31-3.62,7.82,11.82-6.27,20.98-13.52,27.22-24.31.56.48,1.12.96,1.67,1.44-2.75,3.99-5.5,7.98-8.33,12.09Zm36.17,19.15c-2.17,1.37-13.73,6.85-7.33,9.92,7.02,3.38,7.81-5.75,7.33-9.92Zm-73.91-27.22c.28.5.57,1,.85,1.51,2.76-1.47,5.52-2.94,8.28-4.41-.31-.55-.62-1.11-.93-1.66-2.74,1.52-5.47,3.05-8.21,4.57Z"/><path class="cls-1" d="m752.44,123.93c-10.8-3.87-20.29-13.22-31.05-18.01-11.02-4.91-22.54-7.81-34.57-8.7-25.36-1.88-52.26,7.22-76.94-.08,10.06-.53,20.24,1.58,30.46,1.06,10.14-.52,20.19-2.02,30.33-2.45,9.31-.39,10.61.17,12.51-9.45.81-4.08,2.35-8.82,2.01-12.96-.22-2.71-2.4-4.67-2.02-7.52.81-6.04,5.29-7.18,7.69-2.27,3.37,6.89-2.87,17.95-1.84,25.41.69,4.99,4.75,11.06,9.42,5.19,2.77-3.49,1-19.25,1.37-23.72,12.34,6.27-1.3,16.44,5.7,26.58,2.58,3.75,11.66,6.16,15.35,7.96,6.94,3.4,13.99,7.36,21.23,10.05,6.71,2.49,5.14,2.86,9.9-1.78,1.79-1.75,6.38-11.78,9.76-10.74,6.46,1.97-6.66,18.08-9.32,21.45Z"/><path class="cls-1" d="m409.36,765.41c-6.05,4.77-11.95,9.65-12.57,18.93,4.97-3.14,9.87-6.24,14.77-9.34-.12-.4-.23-.79-.35-1.19-1.49-.28-2.98-.56-5.72-1.07,5.74-1.58,10.38-2.86,14.7-4.05,8.5,2.53,17.02.75,25.8-.01.04.48.09.96.13,1.44-7.73.91-17.1.66-24.56,3.01-7.32,2.3-10.69,8.51-15.17,14.34,11.61-.08,15.54-13.49,26.61-8.24-1.41,2.37-2.79,4.75-4.12,7.16,7.36.55,10.54-5.67,16.36-8.62-.56,1.88-.9,3.01-1.14,3.81,2.25.12,4.66.24,7.06.37.02.36.03.73.05,1.09,1.59-.81,3.19-1.61,5.26-2.66.38,4.65,1.85,7.62,7.2,4.27-3.21,5.62-7.09,5.45-10.58-.08-2.47,1.44-4.95,2.88-8.28,4.82.37-2.13.57-3.26.81-4.68-10.57,5.37-18.64,1.08-29.16,1.93-2.62.21-8.05,5.89-10.97,1.49-1.61-2.42,2.02-6.26,3.32-7.85-6.87,2.7-11.45,9.1-18.7,5.23-2.79,3.13-5.44,6.12-8.1,9.11-.51-.45-1.03-.9-1.54-1.34,5.96-6.97,11.92-13.94,17.88-20.91-.25-.37-.5-.74-.74-1.12-5.74,3.42-18.35,14.94-25.05,10.04-7.01-5.13,5.45-14.25,10.76-13.18-3.76,2.73-7.28,5.29-10.8,7.84,2.58.95,6.12-.68,4.52,4.54,10.74-5.63,20.86-10.94,30.99-16.25.44.39.89.78,1.33,1.17Zm19.96,15.88c-.53-.87-1.05-1.73-1.58-2.6-2.11,1.54-4.22,3.09-6.32,4.63.47.68.93,1.36,1.4,2.04,2.17-1.36,4.33-2.72,6.5-4.08Z"/><path class="cls-1" d="m1152.39,53.83c-1,2.06-2,4.11-3,6.17,4.68-1.21,7.63-5.04,12.52-1.55,4.8,3.42,2.97,7.53-.2,11.17.27.31.54.62.81.93,7.75-4.24,10.92-11.34,21.11-8.37-1.86,2.42-3.56,4.61-6.02,7.79,7.2-1.71,11.36-5.24,14.08-11.06,1.86.93,3.53,1.77,5.78,2.9-1.42,2.16-2.71,4.13-4.02,6.12,9.1,2.04,11.74-9.55,18.87-11.76,7.49-2.31,6.95,1.66,2.35,5.71-.41-.36-.82-.72-1.23-1.08.64-1.17,1.29-2.33,1.93-3.5-.32-.3-.64-.6-.95-.9-2.7,2.8-5.4,5.59-8.1,8.39l1.28,1.68c16.86-1.01,22.85-22.08,38.62-23.37-3.61,9.11-12.35,12.41-19.5,18.46,1.36,2.51,2.78,5.12,4.58,8.44-3.9,1.34-5.33-1.6-8.22-4.26-5.57,4.57-13.84,1.81-20.29,2.88-5.14.85-11.13,5.63-14.47-1.12-6.89,5.62-22.25,6.32-30.47,3.67,1.5-3.87,2.42-5.15,4.9-8.12-.42-.45-.85-.91-1.27-1.36-3.93,3.14-7.86,6.29-11.79,9.43-.4-.37-.8-.75-1.2-1.12,2.93-3.49,5.86-6.98,8.79-10.47-.25-.38-.5-.77-.74-1.15-6.62,4.67-13.23,9.33-19.85,14-.35-.23-.69-.45-1.04-.68,4.34-5.15,8.68-10.3,13.94-16.56-3.97,1.06-6.55,1.75-9.14,2.43-.12-.42-.25-.84-.37-1.26,3.74-1.33,7.49-2.65,11.23-3.98.36.49.72.99,1.08,1.48Zm90.01-6.51c-.37-.41-.74-.83-1.11-1.24-3.71,3.19-7.42,6.39-11.13,9.58.27.32.54.63.81.95,3.81-3.09,7.62-6.19,11.42-9.28Zm-71.54,19.68c.52.79,1.04,1.58,1.55,2.36,2.04-1.64,4.08-3.28,6.11-4.92-.37-.52-.73-1.05-1.1-1.57-2.19,1.38-4.38,2.75-6.57,4.13Z"/><path class="cls-1" d="m1228.55,114.9c10.38,4.4-6.8,8.99-5.3,15.51,7.02,1.55,9.69-4.09,14.46-8.23l1.77,1.32c-1.27,2.56-2.54,5.11-4.3,8.66,2.74.81,5.68,1.67,8.61,2.54-3.13,1.74-14.13-.41-17.34-1.62-4.75-1.8-7.1-2.23-5.98-8.8-2.59,2.36-4.38,4.46-6.34,7.37-.9-1.13-1.52-1.91-2.06-2.59-8.39,3.55-15.52,1.41-24.1,1.62-4.86.12-8.34,2.1-12.69-.29,3.79-5.18,4.66-7.54,10.95-8.17.23.6.46,1.2.69,1.81,2.18-2.6,4.36-5.2,6.95-8.29-2.08-.31-3.3-.5-4.99-.75,2.9-2.77,7.73-3.19,11.14-6.17,4.72-4.13,8.94-9.07,13.64-13.33.58.43,1.16.86,1.73,1.29-6.22,11.38-19.26,20.35-27.81,30.48,3.03.9,5.3,1.58,7.5,2.23,4.91-7.91,8.15-9.51,13.97-6.78-.56,1.74-1.14,3.52-1.95,6.04,11.09-4.68,16.64-14.57,24.41-21.89.46.34.92.68,1.38,1.02-1.47,2.38-2.94,4.76-4.32,7Zm-50.79,14.06c5.89-.53,6.42-1.29,4.26-5.11-1.51,1.81-2.89,3.46-4.26,5.11Z"/><path class="cls-1" d="m53.37,822.8c2.07-21.54,6.48-47.64,1.91-69.01-3.97-18.54-21.24-33.9-28.06-51.86-7.19-18.91-8.23-37.74-6.83-57.72,1.55-22.09-3.34-43.37-6.72-65.06.42-.08.84-.16,1.26-.24,4.96,21.23,9.45,42.76,7.94,64.64-1.51,21.99.17,42.8,9.04,63.26,7.92,18.24,23.93,33.33,27.31,53.33,3.33,19.7-1.37,43.3-4.69,62.79-.39-.05-.78-.1-1.17-.15Z"/><path class="cls-1" d="m951.63,112.61c-2.36,1.67-4.71,3.33-6.99,4.94,3.4-11.12,8.27-5.28,11.03.99,2.54-1.71,2.75-1.51,6.75-1.97.7,6.1-1.16,8.87-3.95,14.24,10.88.09,15.51-16.9,24.77-3.59,6.71-6.1,13.98-12.72,21.25-19.33.32.22.65.44.97.66-.73,1.88-1.47,3.76-2.34,6.01,8,1.48,11.7-6.34,16.24-11.62.71.39,1.41.78,2.12,1.16-.83,3.11-1.66,6.21-2.62,9.77h7.03c.02.29.04.59.05.88-8.57,1.94-13.14,2.94-17.27,11.58,2.19-.8,4.38-1.6,6.56-2.4,1.15,3.18,2.2,6.08,3.65,10.09-2.52-2.17-4.6-3.97-7.35-6.34-1.69.14-5.01,5.71-7.07-.04-3.61.42-6.89.81-10.17,1.19v-9.31c-4.95,4.71-9.54,9.07-14.12,13.44-.34-.29-.69-.58-1.03-.87v-7.76c-.29-.05-.57-.1-.86-.15-4.97,8.68-10.44,7.32-20.29,8.47-.45-5.96.38-8.38,3.14-13.73-.62-.44-1.24-.88-1.86-1.32-3.99,4.4-7.98,8.8-12.46,13.73-1.36-3.91,4.92-13.66,6.41-17.19l-1.59-1.54Zm44.7,14.93c6.21-1.61,11.01-4.09,12.15-10.85-9.51-.09-11.93,1.99-12.15,10.85Zm-21.08-3.2l-2.06-1.01c-1.26,2.15-2.52,4.31-3.78,6.46.7.39,1.39.78,2.09,1.18,1.25-2.21,2.5-4.42,3.75-6.63Z"/><path class="cls-1" d="m293.97,692.86c.26,1.78.53,3.57.79,5.35l-.79.53c-1.89-2.78-3.71-5.62-5.45-8.49-.45.12-.9.24-1.34.35.42,3.46,2.3,11.46-2.73,11.7-2.37.11-8.11-11.63-9.35-13.6-3.82,5.49-4.27,9.7-1.31,14.23-.33.25-.65.5-.98.75-6.28-4.04-3.75-20.17-3.75-26.63-2.27.7-4.06,1.26-5.85,1.82-.12-.26-.23-.51-.35-.77,1.86-1.2,3.72-2.4,5.9-3.8-1.95-3.7-.59-4.64,1.54-8.29,6.44,3.79,5.28,9.11,6.96,16.07,1.68,6.97,4.9,12.8,9.24,18.49-1.2-7.27-1.92-13.34-5.22-20.04-3.15-6.38-5.36-7.55-2.73-14.46,9.66,4.54,11.78,17.39,15.49,26.89l-.05-.09Z"/><path class="cls-1" d="m230.13,49.38c7.61,1.75,13-2.52,19.1-5.93-2.08,3.08-4.16,6.16-6.24,9.24l1.18,1.25c10-6.67,19.14-14.49,28.82-21.99-4.4,4.94-8.79,9.88-13.19,14.82.22.36.44.72.66,1.08,2.55-.82,5.1-1.64,8.59-2.76-1.03,2.09-1.77,3.57-2.79,5.63,1.65.83,3.32,1.66,4.98,2.5,0,.23,0,.46,0,.69-2.04-.16-4.08-.33-6.13-.49-1.45,6.23-1.41,8.71-6.8,11.94-.14-2.74,3.87-16.33,2-15.76-2.49.75-2.73,6.39-4.04,8.66-2.51,4.35-5.75,7.6-9.67,10.74-.59-9.7,7.1-14.16,9.71-21.68-5.38,4.27-8.79,7.41-15.48,8.73-.09-1.69-.18-3.38-.29-5.22-4.49.5-9.29.28-13.04,2.82-3.83,2.6-3.77,4.99-9.1,7.08,0-4.75.64-9.2,1.12-13.72.43-4.01-.68-8.25,2.54-11.82,2.76-3.06,4.84-4.25,8.29-1.11,4.61,4.2,1.14,10.44-.21,15.32Zm-8.18-3.08c.58.37,1.17.74,1.75,1.12,1.17-1.91,2.33-3.81,3.5-5.72.35.28.69.56,1.04.83-1.08,1.96-2.17,3.92-3.55,6.42,4.47-1.61,8.46-9.09,4.93-13.24-5.56-6.53-8.72,6.79-7.67,10.6Zm3.71,5.74c-.65-.41-1.3-.81-1.95-1.22-1.44,2.37-2.89,4.75-4.33,7.12.65.41,1.31.81,1.96,1.22,1.44-2.37,2.88-4.75,4.32-7.12Z"/><path class="cls-1" d="m867.52,44.03c-1.33-5.8,9.56-22.25,16.6-16.45,4.26,3.51-15.96,30.29-18.46,34.31,13.61-5.64,23.52-14.01,32.67-23.6-.76,8.09-14.96,19.02-20.12,25.22,1.66.48,3.25.94,4.84,1.4-.5,1.69-.99,3.39-1.67,5.72,4.74.02,3.53-9.12,10.03-5.96-1.01,1.83-2.01,3.63-3.2,5.8,1.32.26,2.63.51,3.93.76-.17,1.62-7.01,1.68-8.14,1.37-4.82-1.3-3.92.55-5.49-5.31-2.36,1.63-5.21,3.59-8.06,5.56-.31-.26-.63-.51-.94-.77,3.96-5.24,7.92-10.48,11.88-15.72-5.88,4.28-13.13,6.15-18.79,10.78-4.43,3.62-7.58,9.8-14.47,7.25-5.25-1.94-7.62-8.33-4.81-13.31,3.91-6.94,13.12-3.89,8.19,4.09-.25-2.26-.78-4.47-1.57-6.61-7.7,3.9-7.71,17.34,3.24,13.73,8.57-2.82,16.69-21.33,21.22-28.6-2.86.15-4.87.25-6.87.36Zm.56-.97c7.71-2.9,11.62-8.26,15.4-14.49-7.4.49-12.74,5.42-15.4,14.49Z"/><path class="cls-1" d="m406.92,625.63c7.82,4.97,8.31,6.02,6.3,10.69,2.88,9.08,1.43,16.58,2.23,26.04.79,9.36,7.36,17.25,6.48,26.94-3.33-5.78-5.97-10.35-9.29-16.12-1.41,3.39-2.21,5.3-3.01,7.21-.27,0-.53.02-.8.03,0-10.57-1.02-20.56-.91-31.04.04-4.03.9-8.5-.37-12.36-1.73-5.29-5.39-5.35-.63-11.39Z"/><path class="cls-1" d="m1050.81,777.27c1.15,10.47-9.96,10.72-13.33,18.2,1.89-.5,3.24-.86,3.72-.98,2.37,1.86,4.16,3.25,5.92,4.64-2.25,2.73-2.77,2.64-7.59-1.63-5.85-.17-19.79,7.18-17.88-4.59-6.06,2.81-10.95,5.9-17.94,5.01-7.77-.99-4.3-.8-5.81-7.38-.97,1.92-7.07,11.24-8.78,6.72-2.5-6.6,11.64-7.84,14.7-8.47-1.33,2.92-2.15,4.71-2.96,6.5.22.3.43.59.65.89,3.12-1.56,6.24-3.11,9.68-4.83.07,1.19.15,2.48.32,5.42,8.52-5.54,16.31-10.61,23.95-15.58,2.97,8.36,12.07-1.11,15.36-3.91Zm-26.63,20.48c6.53-2.6,12.63-4,15.87-10.28-7.24-3.1-12.49.24-15.87,10.28Z"/><path class="cls-1" d="m1163.75,134.01c-4.85-1.48-9.64-2.94-14.43-4.4.03-.52.07-1.03.1-1.55-2.21,1.72-4.42,3.43-7.35,5.71-.16-2.44-.24-3.77-.31-4.8-2.45.73-10.56,5.11-12.95,2.38-1.59-1.82,1.93-5.19-.02-6.45,2.86-2.48,5.66-4.91,9.33-8.09-2.43-.47-3.69-.72-4.59-.89,4.15-2.23,8.44-4.54,13.11-7.05v5.52c8.38-2.97,11.84-9.32,18.99-14.28.52.35,1.05.71,1.57,1.06-1.44,3.42-2.89,6.84-4.44,10.53.62.74,1.48,1.77,2.55,3.05-5.5-.24-15.1,6.24-17.31,11.44,2-.61,3.92-1.2,6.26-1.92v5.2c5.03,1.88,4.14-4.26,8.49-4.66,4.81-.44,1.44,6.16,1.02,9.19Zm-32.39-4.52c7.73,0,16.04-6.13,18.92-13.67-6.58-.91-16.92,6.4-18.92,13.67Zm33.31-25.14l-1.47-1.04c-2.28,2.93-4.56,5.85-6.84,8.78.54.42,1.09.84,1.63,1.26,2.23-3,4.45-6,6.68-9Z"/><path class="cls-1" d="m552.09,44.66c-.57,2.24-.96,3.78-1.35,5.32.45.32.9.63,1.35.95,2.36-3.07,4.04-4.55,7.44-6.4.99,2.35.66,4.37-.98,6.05,7.46-.22,12.15-4.62,16.5-9.72.29.42.57.85.86,1.27-4.4,13.45-5.87,10.23-19.55,10.11-7.07-.06-9.31,1.56-8.47-6.5-3.28,2.56-6.06,4.73-8.84,6.9l-.79-.74c.49-1.63.97-3.25,1.86-6.23-3.77,2.2-6.59,3.85-10.33,6.03.69-2.05,1.13-3.37,1.78-5.32-8.91,3.51-16.63,5.49-22.51-2.22,3.58-2.77,6.3-4.89,9.44-7.32-1.64-.58-2.73-.97-3.4-1.21,4.47-2.29,8.92-4.57,13.38-6.86.2.19.4.38.6.57-1.08,1.51-2.16,3.03-3.74,5.26,3.93-.25,7.34-.46,10.76-.67l.58,1.59c-9.3,1.07-19.79.05-23.3,11.37.3.46.6.92.91,1.38,3.42-2.54,6.84-5.08,10.26-7.62.23.22.46.44.68.67-.88,1.95-1.76,3.9-3.08,6.84,9.68-4.78,19.23-3.48,29.94-3.48Z"/><path class="cls-1" d="m824.19,377.77c0,13.03-1.08,23.73-4.21,36.36.51.06,1.25.14,2.77.3-1.43,1.58-2.38,2.62-4.13,4.55v-10.46c-1.99,3.74-3.07,9.97-7.62,8.31,1.66-13.83,3.24-27.06,4.82-40.29.53-.04,1.05-.08,1.58-.13.49,2.79.98,5.58,1.52,8.71,3.53-1.62.27-7.93,5.27-7.36Z"/><path class="cls-1" d="m327.56,679.52c-2.8,6.85.98,12.14,2.67,18-6.56,2.09-7.21-23.23-9.05-28.14-1.3.34-2.43.63-3.56.92-.17-.29-.35-.57-.52-.86,1.51-1.4,3.01-2.81,4.56-4.25-2.08-3.27-7.04-7.95-2.58-10.7,3.71-2.29,8.22,1.82,10.45,4.23,1.27-.57,2.53-1.13,4.92-2.2-4.41,5.69-6.34,6.61-4.36,14.1,2.28,8.63,5.85,17.18,8.71,25.64-.83.19-2.6.58-3.01.68-1.84-6.89-4.43-11.49-8.24-17.43Z"/><path class="cls-1" d="m840.96,349.01c1.34,3.69,7.56,14.21-.2,14.66-1.24-3.36-2.46-6.65-3.67-9.94-.37.14-.75.29-1.12.43.81,7.54,1.62,15.08,2.43,22.62-.45.13-.9.26-1.35.38-.64-1.6-1.27-3.19-2.4-6.02-1.79,2.79-3.09,4.82-4.86,7.56-.93-6.06-1.76-11.45,2.5-16.54-.46-.23-.93-.46-1.39-.69-2.03,1.81-4.05,3.61-6.2,5.53-.63-3.08,4.49-10.55,5.59-13.7,2.2-6.28,2.5-8.99-.83-14.72,7.34-8.7,9.57,4.54,11.57,10.5,0,0-.06-.08-.06-.08Z"/><path class="cls-1" d="m1070,108.01c9.04-3.86,5.63,13.72,5.41,17.09,7.07,1.76,7.71-1.74,13.46-5.2l.79,1.07c-2.6,7.68-2.42,7.61,4.09,11.15-.11.45-.21.91-.32,1.36-6.01-2.35-14.68-6.95-21.05-5.53-5.65,1.26-8.95,9.12-15.31,2.94-6.36,1.67-12.82,4.77-19.18,2.71,3.03-5.33,7.43-9.71,11.45-14.31-.47,4.63-.82,8.13-1.32,13.11,4.5-3.26,8.41-6.1,12.93-9.37-.57,3.44-.98,4.18.43,7.55,3.08-2,4.41-4.27,6.51-7.25-.64-6.53-2.32-10.58,2.19-15.4-1.32,5.14-2.19,10.21,1.81,14.88,4.95-6.01,4.04-12.09-1.89-14.81Z"/><path class="cls-1" d="m658.2,785.5c-.85,1.49-1.62,2.83-2.39,4.18.25.28.49.55.74.83,4.44-3.22,8.89-6.43,13.33-9.65q2.91,6.31,11.71,3.37c-.9,2.07-1.61,3.71-2.32,5.36.26.35.51.71.77,1.06,5.68-2.99,11.36-5.98,17.51-9.22-1.51-1.43-2.11-1.99-2.63-2.49,2.41-1.13,4.61-2.16,6.37-2.99,2.97,1.04,5.71,2,8.44,2.96-10.13-.5-15.74,4.76-10.94,14.23-3.87,1.34-5.92-.49-6.14-6.84-2.65,1.43-7.58,5.17-10.6,5.65-5.36.86-2.39-1.21-6.66-1.48-4-.26-10,2.94-12.94-.69-3.31,1.27-6.17,2.37-9.63,3.69-.16-2.42-.27-3.94-.42-6.17-3.79,3.09-4.81,4.22-9.81,5.26.23-4.36.9-6.36,2.37-10.27-.42-.25-.83-.5-1.25-.75,1.39-.69,2.78-1.38,4.16-2.07.39.27.78.54,1.17.82-1.69,3.22-3.37,6.43-5.06,9.65.29.3.58.6.87.91,3.95-2.75,6.48-9.1,13.34-5.35Z"/><path class="cls-1" d="m347.13,683.21c.33,3.82.63,7.4.94,10.98h-1.09c-3.5-9.82-.97-24.58-7.54-32.62,1.08-1.3,2.2-2.65,3.38-4.06-3.28-.87-8.45-2.36-6.5-7.12,2.16-5.28,8.13.92,10.86,2.91,1.08-.78,2.2-1.6,3.33-2.42l.78.67c-1.25,1.46-2.5,2.92-3.9,4.56,4.38,5.81,3.26,12.96,4.37,19.68.87,5.29,4.6,10.81,2.82,16.26-2.31-3.25-.59-8.89-7.45-8.85Zm1.75-14.47c.55-.27,1.11-.53,1.66-.8-2.65-4.61-2.83-8.1-8.27-7.01,1.64,3.53,2.92,6.26,4.42,9.5.21-2.15.37-3.85.58-6.03.65,1.76,1.12,3.05,1.6,4.34Z"/><path class="cls-1" d="m891.3,122.53c3.39-2,5.84-3.45,8.28-4.9.46.32.91.64,1.37.95-.55,2.71-1.11,5.41-1.74,8.51,6.99-.43,7.14-4.41,11.08-9.42.64.26,1.29.53,1.93.79-.58,2.51-1.17,5.03-1.84,7.92,1.31.86,3.15,2.07,6.18,4.07-2.35,0-3.21-.73-5.35-1.11-2.22-.38-8.66.12-9.98-.23-4.32-1.16-5.3-1.55-4.05-7.79-3.24,2.59-6.18,4.94-9.14,7.3-2.51-3.58-10.15-1.94-7.8-10.24.91-1.12,6.22-1.37,3.81-6.39,1.82-.85,4.04-1.89,6.55-3.06.41,1.22.93,2.81,1.46,4.39-.37-.29-.74-.59-1.11-.88-2.99,3.55-5.97,7.1-8.96,10.65,13.4-3.69,15.07-18.83,25.9-25.06-2.01,10.22-10.91,15.68-16.58,24.48Z"/><path class="cls-1" d="m953.37,789.91c-1.48,2.76-2.57,4.79-3.88,7.24,1.56.32,3.19.66,5.01,1.03-3.39,4.91-16.03.81-18.29-3.66-1.9,1.14-3.82,2.3-7,4.22,1.25-2.74,1.93-4.22,2.83-6.19-4.98,2.37-8.09,3.77-13.53,3.85.62-4.43,3.79-8.43,2.64-12.52,5.71-5.32,7.16-7.09,14.42-7.16,6.21-.06,11.53.7,16.21-4.48-.53,1.34-1.07,2.69-1.65,4.15,1.06.39,2.07.76,3.07,1.13-8.93-.71-10.85,7.44-16.31,12.28,1.77.44,2.86.71,4.22,1.05-.29,1.7-.56,3.28-.84,4.95,6.39,2.96,6.69-6.06,13.11-5.89Zm-10.29-11.4c-12.08-1.22-18.24,3.43-21.81,16.08,7.1-.89,18.19-8.95,21.81-16.08Z"/><path class="cls-1" d="m356.74,653.86c-.9.48-1.96,1.05-4.12,2.2,2.09-2.87,3.42-4.69,4.68-6.42-8.37-10.25.08-9.12,7.04-7.44,1.97,13.74,3.94,27.49,5.9,41.25-.19.08-.37.16-.56.24-1.69-4.31-3.38-8.62-5.09-12.98-5.88,1.83-.9,14.54-2.97,19.19-1.67-12.27-3.26-24-4.9-36.03Zm4.78,12.3c.65-6.68,1.2-12.36,1.76-18.04-.82-.1-1.65-.2-2.47-.31-.97,7.07-1.82,11.59.71,18.34Z"/><path class="cls-1" d="m657.37,626.97c7.02,8.7,9.21,21.62,4.66,28.62-1.66-1.01-2.11-6.06-5.63-1.25-3.09-10.53-8.5-29.41.48-37.37,2.52,4.5,2.38,5.18.49,10Z"/><path class="cls-1" d="m504.61,665.1c-5.47,8.03.58,14.47,2.07,21.23-.54.22-1.08.44-1.63.66-1.72-2.88-3.44-5.77-5.85-9.81.4,4.97.69,8.59.98,12.22-.62.04-1.25.07-1.87.11-.83-5.48.4-20.63-8.38-19.5,5.92-7.23,2.47-14.57.74-22.2,2.18,1.34,3.71,2.28,5.24,3.22.26-.3.52-.59.78-.89-.54-1.15-1.09-2.31-1.63-3.46.44-.21.89-.42,1.33-.63,3.24,6.36.87,15.43,8.22,19.06Z"/><path class="cls-1" d="m361.84,759.4c-.89,2.43-2.41,4.34-3.87,6.48,22.93,2.68,15.26-25.47-4.55-15.15-7.66,3.99-15.15,12.11-16.08,21.05-1.38,13.25,9.85,8.49,19.15,8.6-9.38,6.18-24.94,4.92-21.92-8.95,2.28-10.47,12.45-22.61,23.2-25.29,9.53-2.37,22.47,6.12,15.56,16.8-9.49,14.65-24.26-2.41-11.48-3.55Z"/><path class="cls-1" d="m635.86,683.13c1.11,2.97,1.7,4.56,2.18,5.87.91-2.53,1.72-4.77,2.53-7.01.5.17.99.34,1.49.51.77,5.87,9.28,37.35-1.35,36.55-6.86-.52-5.78-30.46-4.84-35.91Z"/><path class="cls-1" d="m651.68,682.83c.28,2.11.55,4.22.83,6.33.19-.01.38-.02.57-.03.48-2.49.97-4.98,1.45-7.47.57,0,1.15,0,1.72,0,2.86,6.57,8.02,32.06-2.31,31.7-9.7-.34-3.41-23.01-3.41-30.52.38,0,.76,0,1.14,0Z"/><path class="cls-1" d="m602.72,649.84c.63,4.18,1.09,7.28,1.55,10.38-.36-.66-.73-1.31-1.09-1.97-1.25.93-2.5,1.86-3.74,2.79.59.92,1.18,1.83,1.76,2.75-2.45-7.82-.87-16.37-4.4-23.76-1.23-2.57-8.62-11.59-1.72-13.04,7.3-1.53,13.3,27.96,13.3,32.48-.41.15-.82.3-1.23.46-1.31-2.99-2.62-5.98-4.42-10.08Z"/><path class="cls-1" d="m301.95,672.04c1.05-6.92,5.41-19.25,9.84-5.29,1.16-.31,2.33-.62,3.5-.93.18.2.36.4.55.61-1.27.81-2.55,1.63-2.93,1.88,1.47,11.1,2.17,21.28,9.88,29.25-1.88.91-2.06,1.09-3.72,1.09-2.47-5.24-4.72-10-7.27-15.42-3.94,5.99,1.24,11.14.14,17.39-7.33-7.75-.31-22.49-9.9-28.68,0,0-.08.1-.08.1Zm3.9-9.47c-.81.77-1.61,1.55-2.42,2.32,1.39,1.3,2.77,2.6,4.16,3.91.66-.62,1.31-1.24,1.97-1.86-1.24-1.46-2.47-2.91-3.71-4.37Z"/><path class="cls-1" d="m1230.48,798.99c11.63-3.98,22.32-7.64,29.87-17.27.38,8.05-2.69,12.7-7.81,18.71-1.57-3.24-.88-4.34-2.09-7.22-3.32,2.72-6.65,5.45-8.67,7.1-4.24-.55-22.85-.2-18.13-6.48,1.48-1.97,5.31-3.73,7.54-2.38,2.93,1.77-.36,4.95-.71,7.55Z"/><path class="cls-1" d="m808.38,346.54c-1.05,2.57-2.23,5.48-3.6,8.86-.77-3.06-1.38-5.51-1.77-7.07,3.07-8.99,1.51-17.47.75-26.88,13.13-3.45,9.17,22.13,9.17,30.61-.56.13-1.12.27-1.69.4-.88-1.82-1.76-3.64-2.86-5.93Z"/><path class="cls-1" d="m1179.74,799.09c-4.65.72-9.3,1.45-14.56,2.27-.25-6.63,10.33-21.29,18.06-17.84-5.33,4.59-10.32,8.89-15.32,13.19.4.47.8.95,1.2,1.42,10.7-3.64,18.15-14.72,26.08-22.36,1.57,9.34-5.49,11.54-12.32,16.06.64,3.72,1.04,6.03,1.43,8.34-.58.42-1.17.84-1.75,1.26-.56-1.37-1.12-2.75-1.68-4.12-.38.59-.76,1.18-1.14,1.77Z"/><path class="cls-1" d="m973.32,790.35c-.44,2.92-.63,4.16-.66,4.33-3.04.67-5.47,1.2-8.87,1.95,8.06,6.42,18.69.96,24.02-10.74-7.77-3.15-8.72-5.27-5.79-10.46,8.86,15.61,12.22-2.57,24.01-5.26.44,11.46-11.52,13.1-17.78,20.61-7.34,8.8-14.2,14.02-25.37,7.52,3.3-4.56,5.21-5.7,10.43-7.95Zm31.47-16.72l-1.95-1.53c-2.39,2.89-4.78,5.78-7.16,8.67.5.42.99.85,1.49,1.27,2.54-2.8,5.09-5.61,7.63-8.41Z"/><path class="cls-1" d="m874.57,794.55c4.44-2.42,8.89-4.84,13.99-7.62-1.84-1.7-2.82-2.6-3.8-3.51,7.36,1.76,11.04-3.34,14.87-8.16.38.36.76.72,1.14,1.09-1.43,2.3-2.85,4.6-4.58,7.39,2.36.69,4.46,1.31,7.07,2.08-10.28,1.58-11.22,1.9-15.74,11.5.59.38,1.18.76,1.77,1.13,1.45-1.3,2.9-2.61,4.36-3.91.36.17.72.34,1.08.51-5.6,8.78-7.05,4.45-8.49-4.4-4.25,2.01-23.42,9.83-20.74-1.51,1.87-7.94,15.02-6.84,8,3.6.36.6.73,1.2,1.09,1.81Zm-.33-7.22c-.69-.66-1.37-1.33-2.06-1.99-1.72,1.81-3.44,3.62-5.16,5.42.58.59,1.15,1.17,1.73,1.76,1.83-1.73,3.66-3.46,5.49-5.19Z"/><path class="cls-1" d="m591.91,658.01c-6.64-1.4-3.55-9.99-9.02-12.83-1.31,4.18-.31,7.7,3.27,11.14-3.47.17-6.62.33-8.97.45,1.46-6.01,2.64-11.42,1.53-17.59-.45-2.5-5.2-10.88,3.25-9.63,5.18.77,5.63,23.08,10.97,27.38l-1.02,1.08Z"/><path class="cls-1" d="m1035.69,52.58c-4.66,5.74-8.57,10.56-12.65,15.57,1.1.38,2.2.76,3.29,1.14-.02.28-.04.55-.06.83-1.5.15-3,.29-4.5.45-3.99,14.55-8.11,19.66-16.27,18.78,3.57-11.97,13.04-19.42,20.35-28.73-7.17-1.91-6.62,3.38-11.89,5.78-2.87,1.31-6.79,3.3-4.96-1.32,2.25-5.69,20.94-9.67,26.69-12.51Zm-18.38,21.05c-2.82,4.34-5.65,8.67-8.47,13.01.46.3.93.59,1.39.89,4.8-3.11,7.34-7.62,7.08-13.9Z"/><path class="cls-1" d="m294.02,692.95c-1-5.78-3.06-12.15-1.53-18.01-2.01-10.18,2.7-8.67,9.46-2.9,0,0,.08-.1.08-.1-7.56,3.1-.14,20.19.27,25.97-1.62-2.54-3.25-5.09-5.11-7.99.16,2.92.31,5.68.46,8.43-.29.12-.58.23-.87.35-.94-1.95-1.88-3.89-2.83-5.84,0,0,.05.09.05.09Z"/><path class="cls-1" d="m615.06,663.51c-4.22-6.8-14.62-35.86-4.59-38.88,8.76-2.63,6.28,8.01,5.55,12.83-1.32,8.7-.96,17.28-.96,26.05Zm1.07-33.02c-.26-1.01-.52-2.02-.78-3.04h-6.17c.53,1.91,1.06,3.81,1.59,5.72l5.37-2.68Z"/><path class="cls-1" d="m1101.62,147.01c4.68-8.47,9.06-16.41,13.45-24.34-.29-.36-.58-.71-.87-1.07-2.21,2.03-14.43,13.97-11.61,5.82,2.41-6.98,14.25-8.09,20.2-9.92-1.78,2.54-5.42,5.9-6.53,8.87-1.56,4.16.76,6.72.15,10.75-1.12,7.38-7.54,11.03-14.79,9.88Zm3.16-1.22c7.91-2.36,10.41-6.76,8.08-13.5-2.67,4.46-5.08,8.49-8.08,13.5Z"/><path class="cls-1" d="m197.5,62.98c-8.22.66-16.43,1.32-24.73,1.98,5.83-7.88,15.03-16.64,17.71-26.25,3.25-11.67-3.48-11.84-11.84-6.95.53.64,1.06,1.28,1.6,1.91,1.61-.42,3.21-.84,4.82-1.26.23.35.46.69.7,1.04-13.87,8.27-3.84-13.84,5.57-7.72,10.43,6.78-9.5,31.17-14.29,36.71,7.3,1.56,13.91-4.35,20.68-.99-.07.51-.14,1.01-.2,1.52Z"/><path class="cls-1" d="m1225.99,781.99c-5.23,4.14-15.52,9.58-5.97,14.3-.1.44-.2.87-.31,1.31-2.12-.59-4.24-1.18-6.51-1.82-3.88.83-13.55,3.58-10.13-3.18,2.77-5.46,13.04-.01,13.15-8.04,7.1-5.05,13.67-9.71,20.24-14.38.2.28.4.56.6.84-3.71,3.68-7.42,7.36-11.12,11.05l.05-.07Z"/><path class="cls-1" d="m1116.95,795.03c-3.78,2.61-7.21,6.74-11.62,7.9-.81.21-4.56-1.35-6.03-1.34-4.05.03-6.61.62-10.86.12,1.87-3.86,2.79-8.35,7.77-8.73-1.85,2.49-3.7,4.99-5.55,7.48.44.62.88,1.23,1.32,1.85,5.73-2.45,11.45-4.9,17.18-7.35l.78-2.15c-4.36-2.6-9.64-7.31-2.88-11.22,8.5-4.92,9.89,8.2,9.85,13.49l.04-.06Zm-3.64-2.24c.63-.23,1.26-.46,1.89-.69-.29-2.75-2.79-14.79-8.2-8.54-3.46,4,3.51,7.47,6.31,9.23Z"/><path class="cls-1" d="m668.52,635.11c2.07-2.45,4.13-4.91,6.2-7.36.48.22.97.44,1.45.66-1.58,7.28-3.17,14.55-4.75,21.83-.43-6.49-2.62-11.77-8.4-14.71,6.22-8.26,4.58-8.88,3.77-18.53,6.18,1.19,8.46.02,8.3,6.14-.1,3.97-5.77,8.04-8.15,10.69.53.43,1.06.86,1.59,1.29Zm4.92-12.46c.22-.78.45-1.56.67-2.34-1.86-.62-3.71-1.24-5.57-1.86-.29.95-.57,1.89-.86,2.84,1.92.45,3.84.91,5.76,1.36Z"/><path class="cls-1" d="m1092.23,326.72c10.57-4.45,16.2-13.56,23.38-20.89l1.19,1.12c-6.14,6.51-12.28,13.02-18.59,19.7h4.69c.01.25.02.51.03.76-6.22.95-12.45,1.9-20.04,3.06,7.72-3.67,9.09-5.87,8.09-13.08-2.56,2.93-8.52,13.58-12.76,13.26-8.92-.67-.58-10.52,2.65-12.8-1.78,3.27-3.56,6.55-5.34,9.82.5.51.99,1.02,1.49,1.52,6.06-4.09,8.83-10.63,15.81-12.86.34,4.12.05,6.44-.61,10.39Z"/><path class="cls-1" d="m239.07,214.05c1.59-3.32,4.92-14.92,9.26-14.58,3.21.25,5.38,9.27,6.32,11.6,3.13-4.7,5.24-7.92,9.9-10.98,3.23,6.02,3.37,12.36,4.2,19.11-.51.12-1.02.24-1.54.36-1.21-5.65-2.43-11.29-3.69-17.15-3.09,4.33-5.8,8.46-9.78,12.04-2.68-4.32-4.1-8.46-5.73-13.27-3.58,5.06-6.32,8.93-9.06,12.8,0,0,.1.07.1.07Z"/><path class="cls-1" d="m419.94,46.94c1.77-1.79,3.55-3.57,5.85-5.89,1.03,2.21,1.62,3.46,2.33,4.99,1.26-.67,2.5-1.33,4.23-2.24v6.14c8.26.43,11.87-5.9,17.66-10.89,3.3,8.05-7.25,7.92-5.99,14.27-4.28-6.2-12.19,3.2-15.72-4.54-2.59,1.57-4.91,2.99-7.23,4.4-.37-.46-.75-.92-1.12-1.38,1.35-1.95,2.71-3.9,4.59-6.59-1.99.84-3.22,1.36-4.46,1.88l-.13-.14Z"/><path class="cls-1" d="m917.31,674.1c6.12-1.42,7.38,5.38,12.99,7.34-.49-3.65-5.14-17.94,1.62-16.88.6,8.12,1.19,16.1,1.83,24.85-9.64-5.46-15.67-11.19-16.44-15.32Z"/><path class="cls-1" d="m420.08,47.08c-3.16,4.44-6.29,5.72-11.45,6.29-2.41.27-12.88.8-14.76-.52-7.41-5.21,9.67-18.56,9.19-7.86-1.13-.84-2.27-1.67-4.07-3-1.72,2.73-3.37,5.37-5.32,8.47,10.11,1.96,14.13-10.61,23.23-7.26-3.09,2.52-6.17,5.04-9.26,7.56.07.4.14.8.21,1.2,4.6-1.18,7.99-2.64,12.1-5.02,0,0,.13.14.13.14Z"/><path class="cls-1" d="m282,50.97c1.69-2.64,15.99-.7,20.87-1.04-2.42,2.52-4.45,4.65-6.48,6.77.29.41.57.82.86,1.23,4.16-2.71,10.58-9.92,12.68-1.85,1.86-1.44,3.64-2.81,5.73-4.42.75,1.36,1.35,2.45,2.07,3.77,1.46-.37,3.03-.77,4.6-1.17.17.22.35.43.52.65-3.66,2.15-11.52,1.01-13.9,3.95-.97-1.46-1.93-2.91-3.2-4.82-5.26,4.32-6.09,5.31-10.84,3.08-2.04-.96-.21-3.89-3.65-4.8-2.65-.7-6.25,3.53-7.88,4.85-3.11-1.62,4.16-5.21-1.45-6.26l.07.06Z"/><path class="cls-1" d="m693.34,339.14c-17.83,19.42-35.94,37.88-50.2,60.16-.45-.29-.91-.57-1.36-.86,7.52-12.12,14.56-21.62,24.77-31.6,9.32-9.11,16.03-20.15,24.98-29.53.6.61,1.2,1.22,1.81,1.83Z"/><path class="cls-1" d="m397.49,31.16c-4.9,8.29-12.55,25.89-24.18,22.16.83-6.12,5.15-8.97,9.89-6.41,2.82-6.81,7.13-12.38,12.9-16.72.46.32.93.65,1.39.97Z"/><path class="cls-1" d="m849.67,122.61c-1.84,1.54-3.69,3.08-5.53,4.62l-1.03-.77c1.3-2.37,2.6-4.75,3.9-7.12-.56-.48-1.11-.95-1.67-1.43-3.5,4.62-4.14,5.72-9.84,6.1,2.74-12.83,10.27-6.96,18.77-4.17-.24,1.42-.5,2.96-.81,4.76,1.66.17,3.25.34,4.84.51-3.98,2.86-5.76,2.35-8.64-2.51Z"/><path class="cls-1" d="m489.8,53.66c1.79-2.6,3.58-5.19,4.9-7.1-2.56-2.66-4.79-4.98-7.03-7.31,4.91-4.2,6.23-2.14,12.1.68-.33.23.55-.39,2.43-1.7-.9,2.36-1.38,3.63-1.96,5.16,1.58.29,2.9.53,5.48,1.01-7.83,2.41-9.8,3.58-14.55,10.39-.45-.37-.91-.75-1.36-1.12Z"/><path class="cls-1" d="m789.14,782.04c-2.9,8.4-2.65,12.96-11.29,15.26.51-3.84,5.47-21.59,11.29-15.26Z"/><path class="cls-1" d="m476.32,40.14c-3,5.97-4.19,13.05-11.15,13.7-.75.07-3.49-2.84-5.18-2.99-2.38-.22-6.42,1.65-8.78,2.02,8.16-4.14,16.21-8.22,25.1-12.73Z"/><path class="cls-1" d="m1084.38,786.33c2.26-1.51,4.4-2.93,6.53-4.36.35.18.69.36,1.04.53-2.92,4.5-5.84,9-8.97,13.82,1.18.62,2.07,1.09,3.1,1.64-2.02,1.79-17.93,4.68-12.68-1.2,4.16-4.66,12.39-.67,10.98-10.43Z"/><path class="cls-1" d="m736.66,785.39c-1.1,1.49-2.2,2.98-3.72,5.05,4.56-.15,7.9-6.63,12.19-1.32,4.28-3.15,7.71-.52,11.8,1.83-5.69.41-10.87.79-16.64,1.21,0,.05-.16-.97-.37-2.28-3.25,1.97-4.84,2.86-8.71,3.75.02-4.78,1.04-5.73,4.38-9.25.35.34.71.68,1.06,1.02Z"/><path class="cls-1" d="m1149.94,796.98c-1.91,7.23-2.2,13.17-8.16,17.72-2.23-7.88,3.25-11.55,8.23-17.66l-.07-.06Z"/><path class="cls-1" d="m684.4,328.08c-.34-.59-1.05-1.82-2.22-3.83,4.49.78,8.44,1.47,12.68,2.21.23-3.49,1.72-8.14-5.68-9.17,3.4-1.06,5.89-1.83,8.32-2.59,0,13.63.77,15.09-13.1,13.39Z"/><path class="cls-1" d="m337.77,38.04c2.34,7.56,7.28,1.22,11.88,3.34-7.5,2.07-10.86,1.92-16.17,7.97,2.99,1.08,6.12,1.44,8.99,2.39-4.47,3.32-8.58,2.47-12.21-1.31-1.82.91-3.41,1.7-5.77,2.88,4.66-5.35,8.73-10.04,13.28-15.27Z"/><path class="cls-1" d="m811.49,786.17c-.1,4.48-5.19,9.65-9.19,6.5-2.12-1.67,4.21-10.2,9.19-6.5Z"/><path class="cls-1" d="m579.89,108c-5.56,11.31,8.51,33.19,12.68,43.68-.58.29-1.16.57-1.74.86-5.28-9.54-18.15-34.24-10.95-44.53Z"/><path class="cls-1" d="m627.76,464.51c-1.68,9.89,2.96,10.84,11.67,10.63,7.68-.19,8.66-1.77,7.68-10.27,16.18,13.62-31.77,19.7-19.35-.36Z"/><path class="cls-1" d="m681.74,633.41c-.49-2.28-.98-4.56-1.46-6.84-.26,0-.53,0-.79,0-.61,8.21,1.47,16.18-3.3,23.5-1.61-6.63,0-20.88,3.68-26.72,2.62,3.5,2.84,5.56,3.69,9.75-.6.1-1.21.21-1.81.31Z"/><path class="cls-1" d="m1116.91,795.09c3.98-2.19,7.76-4.27,11.96-6.03.43.35.86.7,1.3,1.04-1.12,2.46-2.24,4.91-3.51,7.72.64.73,1.57,1.81,2.51,2.89-.11.18-.23.36-.34.54-3.95-2.07-7.91-4.15-11.86-6.22,0,0-.05.06-.05.06Z"/><path class="cls-1" d="m1260.64,797.65c3.41,1.2,5.65,1.98,8.19,2.87-4.81,1.98-5.27,1.86-11.88-3.4,3.84-3.16,5.4-5.91,10.25-4.64-2.33,3.56-2.89,3.44-6.56,5.17Z"/><path class="cls-1" d="m103.61,657.92c6.29,7.44,12.58,14.89,19.09,22.59-2.74-.39-17.45-16.36-20.34-21.68.42-.31.84-.61,1.25-.92Z"/><path class="cls-1" d="m1150.01,797.04c-2.89-4.35-7.23-3.83-1.67-8.57,0,2.11-.17,2.68,1.16,4.36,1.88-2,3.76-4,5.59-5.95,1.69,4.62.64,6.7-5.14,10.1,0,0,.07.06.07.06Z"/><path class="cls-1" d="m1196.83,800.35c-7.25,0-9.26-2.62-2.89-7.46,1.33,2.68,2.05,4.67,2.89,7.46Z"/><path class="cls-1" d="m607.38,502.44c5.52-6.63,11.7-14.07,17.74-21.33-1.45,7.28-13.39,20.8-17.74,21.33Z"/><path class="cls-1" d="m1225.94,782.06c6.23-1.87,12.6-3.55,15.31-12.24.96,7-8.36,16.83-15.25,12.17,0,0-.05.07-.05.07Z"/><path class="cls-1" d="m593.3,517.54c-11.91,9.75-18.13,9.82-20.59-.48,6.33,9.38,12.07,4.52,20.59.48Z"/><path class="cls-1" d="m1262.23,404.53c7.81,2.88,15.18,5.6,22.55,8.32-.09.33-.19.66-.28.99-2.73-.61-23.16-8.76-22.27-9.3Z"/><path class="cls-1" d="m605.14,454.98c1.57-6.18.4-13.69,7.75-17.36-2.66,5.97-5.2,11.66-7.75,17.36Z"/><path class="cls-1" d="m790.02,795.43c2.57-3.89,5.14-7.79,7.72-11.68.64.39,1.28.79,1.93,1.18-1.78,4.33-4.85,7.9-7.85,11.51-.6-.34-1.2-.67-1.79-1.01Z"/><path class="cls-1" d="m643.81,528.33c5.96,4.83,5.61,10.97-1.16,18.69,1.43-6.9,5.92-12.54,1.16-18.69Z"/><path class="cls-1" d="m281.94,50.91c-2.66,3.66-3.1,4.21-7.58,4.43.22-5.05,1.73-6.57,5.05-10.5l1.41,1.11c-1.83,2.33-3.66,4.67-5.5,7,.27.41.53.82.8,1.23,1.96-1.07,3.92-2.14,5.88-3.22,0,0-.07-.06-.07-.06Z"/><path class="cls-1" d="m768.12,794.5c2.48-4.27,4.97-8.53,7.45-12.8l1.81.97c-2.43,4.3-4.86,8.6-7.29,12.9-.66-.35-1.31-.71-1.97-1.06Z"/><path class="cls-1" d="m978.85,695.16c-1.25,2.96-2.51,5.93-3.76,8.89-.67-.22-1.34-.44-2.01-.65.96-3.1,1.91-6.19,2.87-9.29.97.35,1.93.7,2.9,1.05Z"/><path class="cls-1" d="m608.41,550.32c4.93-.27,9.87-.53,14.8-.8.04.48.07.95.11,1.43-4.93.36-9.86.72-14.79,1.07l-.12-1.71Z"/><path class="cls-1" d="m1238.01,390.17c6.6,2.69,13.21,5.38,19.81,8.07-.16.4-.32.8-.48,1.2l-19.96-8.1c.21-.39.42-.78.63-1.16Z"/><path class="cls-1" d="m843.17,782.38c-2.06,3.8-4.13,7.6-6.19,11.4-.59-.32-1.18-.63-1.77-.95l6.15-11.44c.61.33,1.21.66,1.82.99Z"/><path class="cls-1" d="m231.97,260.39c4.89-2.44,9.77-4.88,14.75-7.36-.67,3.34-7.97,7.25-14.75,7.36Z"/><path class="cls-1" d="m949.92,703.65c1.25-3.21,2.51-6.42,3.76-9.63.64.23,1.27.46,1.91.68-1.13,3.25-2.27,6.51-3.4,9.76l-2.27-.81Z"/><path class="cls-1" d="m624.87,571.18h-16.69c5.13-.77,10.26-4.67,16.69,0Z"/><path class="cls-1" d="m601.21,599.29c1.64-5.03,3.28-10.06,4.92-15.09.44.14.88.29,1.32.43-1.65,5.03-3.3,10.05-4.95,15.08-.43-.14-.86-.28-1.28-.42Z"/><path class="cls-1" d="m818.46,788.44c5.57-2.23,13.99-2.26,16,0h-16Z"/><path class="cls-1" d="m977.86,674.67c-.77,2.72-1.54,5.44-2.31,8.16-.71-.17-1.41-.35-2.12-.52.63-2.78,1.25-5.56,1.88-8.34.85.23,1.7.46,2.55.7Z"/><path class="cls-1" d="m992.98,681.43c-.7,2.97-1.39,5.93-2.09,8.9-.72-.16-1.43-.31-2.15-.47.65-3,1.29-6,1.94-9,.77.19,1.53.38,2.3.57Z"/><path class="cls-1" d="m932.1,628.92c-2.75-5.02-5.51-10.04-8.26-15.05.42-.23.83-.46,1.25-.7,2.83,4.97,5.66,9.93,8.5,14.9-.5.28-.99.57-1.49.85Z"/><path class="cls-1" d="m641.77,414.61c-2.02,4.42-4.04,8.85-6.06,13.27-.43-.2-.86-.4-1.29-.61,1.9-4.5,3.79-9,5.69-13.5.56.28,1.11.55,1.67.83Z"/><path class="cls-1" d="m1101.65,777.86c-2.21,2.32-4.41,4.63-6.62,6.95-.33-.31-.66-.63-.99-.94,1.84-2.63,3.69-5.26,5.53-7.89.7.63,1.39,1.25,2.09,1.88Z"/><path class="cls-1" d="m1228.78,162.34c3.63-4.28,7.25-8.56,10.88-12.84.38.31.75.63,1.13.94-3.62,4.28-7.25,8.56-10.87,12.85-.38-.31-.75-.63-1.13-.94Z"/><path class="cls-1" d="m840.66,793.59c2.02-3.53,4.04-7.06,6.06-10.59.48.24.97.48,1.45.72-1.85,3.59-3.7,7.19-5.55,10.78-.65-.3-1.31-.61-1.96-.91Z"/><path class="cls-1" d="m1279.42,296.24c-3.42-.32-6.85-.64-11.21-1.05,4.38-2.19,6.88-.99,11.71.17-.17.29-.34.59-.5.88Z"/><path class="cls-1" d="m1165.28,350.35c-4.82-3.1-9.64-6.2-14.45-9.3.28-.42.56-.84.85-1.26,4.78,3.15,9.57,6.3,14.35,9.45-.25.37-.5.73-.74,1.1Z"/><path class="cls-1" d="m1005.06,705.97c-.3-3.09-.6-6.18-.9-9.27.77-.08,1.54-.15,2.3-.23.28,3.09.56,6.18.83,9.26-.74.08-1.49.16-2.23.23Z"/><path class="cls-1" d="m796.56,148.54c.91-5.38,1.83-10.76,2.74-16.14.41.07.82.15,1.24.22-.96,5.37-1.92,10.74-2.88,16.11-.37-.07-.73-.13-1.1-.2Z"/><path class="cls-1" d="m650.86,531.19l6.12-10.89,1.24.66c-1.94,3.74-3.87,7.47-5.81,11.21-.52-.33-1.03-.65-1.55-.98Z"/><path class="cls-1" d="m63.77,339.58c4.28-1.85,8.56-3.71,12.84-5.56l.69,1.58c-4.26,1.75-8.52,3.51-12.78,5.26-.25-.43-.5-.85-.76-1.28Z"/><path class="cls-1" d="m975.43,684.69c-.75,3.59-.06,5.89-3.9,6.09.57-2.18,1.15-4.36,1.72-6.54.72.15,1.45.3,2.17.45Z"/><path class="cls-1" d="m1119.83,328.24c-4.59-.24-9.17-.49-13.76-.73l.08-1.48c4.7.35,9.4.71,14.1,1.06-.14.38-.28.77-.43,1.15Z"/><path class="cls-1" d="m1132.98,334.98c-.71.94-1.42,1.88-1.98,2.63,1.07,2.28,2.21,4.71,3.35,7.15-4.72,1.26-4.97.99-7.42-8.71,2.06-.35,4.07-.68,6.09-1.02,0,0-.04-.05-.04-.05Z"/><path class="cls-1" d="m1220.58,300.11c-1.18,5.12-4.29,5.24-9.35,4.45,3.6-1.72,6.05-2.88,9.35-4.45Z"/></svg>