<svg width="870" height="288" viewBox="0 0 870 288" fill="none" xmlns="http://www.w3.org/2000/svg">
<g opacity="0.3">
<path d="M4.61538 38.4328L2.50143 38.7632L2.50142 40.9028L2.50142 138.73L2.50141 247.097L2.50141 249.237L4.61536 249.567L101.554 264.719L101.613 264.728L101.673 264.734C142.534 269.125 226.379 278.109 234.661 278.901C243.006 279.699 325.517 283.634 365.624 285.497L365.682 285.5L365.74 285.5L491.018 285.5L556.968 285.5C564.01 285.5 591.248 283.176 617.933 280.547C631.317 279.229 644.625 277.827 655.288 276.59C665.863 275.363 674.037 274.276 676.996 273.575C680.462 272.754 687.895 271.604 697.028 270.191C702.26 269.381 708.05 268.485 713.971 267.516C722.029 266.196 730.268 264.748 737.501 263.212C744.688 261.686 751.043 260.042 755.246 258.3C763.214 254.997 773.768 250.457 783.3 246.12C792.762 241.815 801.413 237.623 805.435 235.036C809.547 232.391 821.642 222.156 833.519 208.424C845.153 194.972 856.933 177.762 860.625 160.633L866.429 156.592L867.5 155.846L867.5 154.54L867.5 149.929L867.5 144.659L867.5 143.353L866.429 142.607L860.625 138.566C856.933 121.437 845.153 104.228 833.519 90.7749C821.642 77.0426 809.547 66.8077 805.435 64.1628C801.413 61.5759 792.762 57.3841 783.3 53.079C773.768 48.7424 763.214 44.2021 755.246 40.8991C747.108 37.5256 729.907 32.7067 713.535 28.4375C697.088 24.1486 681.242 20.3558 675.672 19.0365C669.972 17.6862 643.741 13.5512 617.38 9.77174C604.161 7.87647 590.851 6.06238 579.978 4.72153C569.185 3.39051 560.6 2.49997 556.968 2.49997L491.018 2.49997L365.74 2.49996L365.682 2.49996L365.624 2.50264C325.517 4.36622 243.006 8.30073 234.661 9.09897C226.379 9.89136 142.535 18.8753 101.673 23.2654L101.613 23.2718L101.554 23.2811L4.61538 38.4328Z" fill="#F3D9FF" fill-opacity="0.4" stroke="#8C20E1" stroke-width="5"/>
</g>
</svg>
